<?xml version="1.0" encoding="utf-8"?>
<!-- Generator: Adobe Illustrator 16.0.0, SVG Export Plug-In . SVG Version: 6.00 Build 0)  -->
<!DOCTYPE svg PUBLIC "-//W3C//DTD SVG 1.1//EN" "http://www.w3.org/Graphics/SVG/1.1/DTD/svg11.dtd">
<svg version="1.1" id="Layer_1" xmlns="http://www.w3.org/2000/svg" xmlns:xlink="http://www.w3.org/1999/xlink" x="0px" y="0px"
	 width="13px" height="14px" viewBox="0 0 13 14" enable-background="new 0 0 13 14" xml:space="preserve">
<g>
	<path id="Settings_1_" fill="#676B6D" d="M2.049,7.583c0.124,0.502,0.328,0.969,0.598,1.39L1.895,9.729
		c-0.338,0.336-0.335,0.539-0.038,0.836l0.733,0.733c0.301,0.3,0.505,0.294,0.837-0.037l0.788-0.793
		c0.372,0.214,0.774,0.378,1.202,0.483v0.966c0,0.479,0.145,0.618,0.563,0.618h1.04c0.424,0,0.563-0.148,0.563-0.618v-0.966
		c0.428-0.105,0.83-0.27,1.202-0.483l0.807,0.812c0.335,0.33,0.535,0.337,0.835,0.041l0.737-0.738
		c0.294-0.294,0.301-0.495-0.04-0.835L10.35,8.973c0.273-0.421,0.478-0.888,0.601-1.39h1.022c0.422,0,0.562-0.148,0.562-0.618v-0.93
		c0-0.457-0.122-0.618-0.562-0.618H10.95c-0.104-0.428-0.269-0.83-0.484-1.202l0.738-0.733c0.325-0.325,0.353-0.526,0.04-0.835
		L10.507,1.91c-0.294-0.295-0.505-0.291-0.835,0.04L8.973,2.647c-0.421-0.27-0.888-0.474-1.39-0.598V1.083
		c0-0.458-0.121-0.618-0.563-0.618H5.98c-0.418,0-0.563,0.151-0.563,0.618v0.966c-0.502,0.124-0.969,0.328-1.39,0.598l-0.7-0.697
		C2.996,1.619,2.785,1.615,2.492,1.91L1.755,2.647c-0.313,0.309-0.285,0.51,0.04,0.835l0.734,0.733
		c-0.211,0.372-0.374,0.774-0.48,1.202H1.028c-0.418,0-0.563,0.151-0.563,0.618v0.93c0,0.479,0.145,0.618,0.563,0.618H2.049
		L2.049,7.583z M4.729,6.5c0-0.978,0.793-1.771,1.771-1.771c0.979,0,1.771,0.793,1.771,1.771S7.479,8.271,6.5,8.271
		C5.522,8.271,4.729,7.478,4.729,6.5L4.729,6.5z"/>
</g>
</svg>
