<?xml version="1.0" encoding="utf-8"?>
<!-- Generator: Adobe Illustrator 16.0.0, SVG Export Plug-In . SVG Version: 6.00 Build 0)  -->
<!DOCTYPE svg PUBLIC "-//W3C//DTD SVG 1.1//EN" "http://www.w3.org/Graphics/SVG/1.1/DTD/svg11.dtd">
<svg version="1.1" id="Layer_1" xmlns="http://www.w3.org/2000/svg" xmlns:xlink="http://www.w3.org/1999/xlink" x="0px" y="0px"
	 width="48px" height="24px" viewBox="0 0 48 24" enable-background="new 0 0 48 24" xml:space="preserve">
<path fill="#DEDFDF" d="M20.171,6H3.412C2.634,6,2,6.634,2,7.412v9.416c0,0.779,0.634,1.412,1.412,1.412h16.759
	c0.78,0,1.412-0.633,1.412-1.412V7.412C21.583,6.634,20.951,6,20.171,6z M13.016,15.789l-2.448,0.004V12.12l-1.835,2.354
	L6.896,12.12v3.673H4.448V8.448h2.448l1.836,2.448l1.835-2.448l2.448-0.002V15.789z M16.671,16.401l-3.043-4.281h1.836V8.448h2.448
	v3.672h1.836L16.671,16.401z"/>
<path fill="#2f8bfa" d="M44.172,6h-16.76C26.634,6,26,6.634,26,7.412v9.416c0,0.779,0.634,1.412,1.412,1.412h16.76
	c0.779,0,1.412-0.633,1.412-1.412V7.412C45.584,6.634,44.951,6,44.172,6z M37.016,15.789l-2.447,0.004V12.12l-1.836,2.354
	l-1.836-2.354v3.673h-2.448V8.448h2.448l1.836,2.448l1.836-2.448l2.447-0.002V15.789z M40.671,16.401l-3.043-4.281h1.837V8.448
	h2.447v3.672h1.836L40.671,16.401z"/>
</svg>
