<?xml version="1.0" encoding="utf-8"?>
<!-- Generator: Adobe Illustrator 16.0.0, SVG Export Plug-In . SVG Version: 6.00 Build 0)  -->
<!DOCTYPE svg PUBLIC "-//W3C//DTD SVG 1.1//EN" "http://www.w3.org/Graphics/SVG/1.1/DTD/svg11.dtd">
<svg version="1.1" xmlns="http://www.w3.org/2000/svg" xmlns:xlink="http://www.w3.org/1999/xlink" x="0px" y="0px" width="224px"
	 height="224px" viewBox="0 0 224 224" enable-background="new 0 0 224 224" xml:space="preserve">
<g id="Pointer">
	<polygon fill="none" stroke="#E3ECEE" stroke-miterlimit="10" points="4.9995117,13.2001953 5.019043,1.5 13.4995117,9.6000977 
		9.7216797,9.6000977 11.6103516,14.1000977 9.7216797,15 7.8325195,10.5 	"/>
</g>
<g id="Lock">
	<rect x="4.5" y="215.5" fill="#E3ECEE" stroke="#E3ECEE" stroke-miterlimit="10" width="6" height="4"/>
	<polyline fill="none" stroke="#E3ECEE" stroke-miterlimit="10" points="5.5,215.5 5.5,213.5 6.5,212.5 8.5,212.5 9.5,213.5 
		9.5,215.5 	"/>
	<line fill="none" stroke="#EFEFEF" stroke-miterlimit="10" x1="7.5" y1="217" x2="7.5" y2="219"/>
</g>
<g id="Visibility_x28_Public_x29_">
	<circle fill="none" stroke="#E3ECEE" stroke-miterlimit="10" cx="133" cy="168.5" r="2.5"/>
	<line fill="none" stroke="#E3ECEE" stroke-miterlimit="10" x1="133" y1="175" x2="133" y2="171"/>
	<g>
		<line fill="none" stroke="#E3ECEE" stroke-miterlimit="10" x1="137.5" y1="161" x2="137.5" y2="166"/>
		<line fill="none" stroke="#E3ECEE" stroke-miterlimit="10" x1="135" y1="163.5" x2="140" y2="163.5"/>
	</g>
</g>
<g id="Visibility_x28_Protected_x29_">
	<g>
		<line fill="none" stroke="#E3ECEE" stroke-miterlimit="10" x1="153.5" y1="161" x2="153.5" y2="166"/>
		<line fill="none" stroke="#E3ECEE" stroke-miterlimit="10" x1="155.5" y1="161" x2="155.5" y2="166"/>
		<line fill="none" stroke="#E3ECEE" stroke-miterlimit="10" x1="152" y1="164.5" x2="157" y2="164.5"/>
		<line fill="none" stroke="#E3ECEE" stroke-miterlimit="10" x1="152" y1="162.5" x2="157" y2="162.5"/>
	</g>
	<ellipse fill="none" stroke="#E3ECEE" stroke-miterlimit="10" cx="149.5" cy="167.75" rx="3" ry="2.25"/>
	<polygon fill="none" stroke="#E3ECEE" stroke-miterlimit="10" points="148.5,170 148.5,173.5 149.5,174.5 150.5,173.5 150.5,170 	
		"/>
	<line fill="none" stroke="#E3ECEE" stroke-miterlimit="10" x1="152.5" y1="172.5" x2="151" y2="172.5"/>
	<line fill="none" stroke="#E3ECEE" stroke-miterlimit="10" x1="149" y1="167.75" x2="150" y2="167.75"/>
</g>
<g id="Visibility_x28_Private_x29_">
	<polyline fill="none" stroke="#E3ECEE" stroke-linejoin="round" stroke-miterlimit="10" points="163.5,168 163.5,166.5 
		164.5,165.5 166.5,165.5 167.5,166.5 167.5,168 	"/>
	<rect x="162.5" y="167.5" fill="none" stroke="#E3ECEE" stroke-miterlimit="10" width="6" height="5"/>
	<line fill="none" stroke="#E3ECEE" stroke-miterlimit="10" x1="164" y1="169.5" x2="167" y2="169.5"/>
	<line fill="none" stroke="#E3ECEE" stroke-miterlimit="10" x1="165.5" y1="171" x2="165.5" y2="169.5"/>
	<line fill="none" stroke="#E3ECEE" stroke-miterlimit="10" x1="168" y1="163.5" x2="173" y2="163.5"/>
</g>
<g id="Visibility_x28_Package_x29_">
	<rect x="178.5" y="168.5" fill="none" stroke="#E3ECEE" stroke-miterlimit="10" width="6" height="4"/>
	<rect x="178.5" y="166.5" fill="none" stroke="#E3ECEE" stroke-miterlimit="10" width="4" height="2"/>
	<g>
		<path fill="#E3ECEE" d="M183.4667969,164.0078125v-1.1005859c0.3798828-0.4296875,0.8779297-0.6445312,1.4941406-0.6445312
			c0.2148438,0,0.4394531,0.03125,0.6757812,0.09375s0.5732422,0.1875,1.0097656,0.3740234
			c0.2480469,0.1035156,0.4326172,0.171875,0.5566406,0.203125c0.1230469,0.0332031,0.2480469,0.0488281,0.3730469,0.0488281
			c0.2324219,0,0.4736328-0.0703125,0.7226562-0.2089844c0.2490234-0.140625,0.4697266-0.3154297,0.6630859-0.5273438v1.1386719
			c-0.2294922,0.2148438-0.4609375,0.3710938-0.6953125,0.4677734s-0.4990234,0.1455078-0.7919922,0.1455078
			c-0.2148438,0-0.4199219-0.0253906-0.6152344-0.0761719c-0.1953125-0.0498047-0.5048828-0.1699219-0.9296875-0.359375
			c-0.4238281-0.1894531-0.7773438-0.2851562-1.0605469-0.2851562c-0.2294922,0-0.4453125,0.0498047-0.6474609,0.1484375
			S183.7675781,163.71875,183.4667969,164.0078125z"/>
	</g>
</g>
<g id="Navigable">
	<line fill="none" stroke="#E3ECEE" stroke-miterlimit="10" x1="147" y1="199.5" x2="156" y2="199.5"/>
	<polyline fill="none" stroke="#E3ECEE" stroke-miterlimit="10" points="154.5,201.5 156.5,199.5 154.5,197.5 	"/>
</g>
<g id="NotNavigable">
	<line fill="none" stroke="#E3ECEE" stroke-miterlimit="10" x1="163" y1="199.5" x2="170" y2="199.5"/>
	<line fill="none" stroke="#E3ECEE" stroke-miterlimit="10" x1="174.5" y1="197.5" x2="170.5" y2="201.5"/>
	<line fill="none" stroke="#E3ECEE" stroke-miterlimit="10" x1="170.5" y1="197.5" x2="174.5" y2="201.5"/>
</g>
<g id="Attribute">
	
		<rect x="69.9644623" y="55.3786812" transform="matrix(-0.7071068 0.7071068 -0.7071068 -0.7071068 166.1309814 46.1862907)" fill="none" stroke="#E3ECEE" stroke-miterlimit="10" width="7.0710678" height="4.2426405"/>
</g>
<g id="Slot">
	
		<rect x="53.4644661" y="55.3786812" transform="matrix(-0.7071068 0.7071068 -0.7071068 -0.7071068 137.9637146 57.8535538)" fill="none" stroke="#E3ECEE" stroke-miterlimit="10" width="7.0710678" height="4.2426405"/>
	<line fill="none" stroke="#E3ECEE" stroke-miterlimit="10" x1="55.5" y1="59.5" x2="59" y2="56"/>
</g>
<g id="Part">
	<rect x="34.5" y="51.5" opacity="0.5" fill="none" stroke="#E3ECEE" stroke-miterlimit="10" width="11" height="10"/>
	<rect x="37.5" y="54.5" fill="none" stroke="#E3ECEE" stroke-miterlimit="10" width="5" height="4"/>
</g>
<g id="InteractionOperand">
	<rect x="2.5" y="50.5" fill="none" stroke="#E3ECEE" stroke-miterlimit="10" width="11" height="10"/>
	<line fill="none" stroke="#E3ECEE" stroke-miterlimit="10" stroke-dasharray="1.5,1.5" x1="3" y1="55.5" x2="13" y2="55.5"/>
</g>
<g id="Operation">
	<g>
		<path fill="#E3ECEE" d="M140.421875,56.7675781c0,0.0917969-0.0732422,0.2021484-0.171875,0.2207031l-1.1347656,0.171875
			c-0.0673828,0.1962891-0.140625,0.3798828-0.2392578,0.5581055c0.2089844,0.300293,0.4296875,0.5703125,0.65625,0.8461914
			c0.0371094,0.0429688,0.0615234,0.0981445,0.0615234,0.1533203c0,0.0556641-0.0185547,0.0981445-0.0546875,0.1411133
			c-0.1474609,0.1962891-0.9755859,1.0981445-1.1845703,1.0981445c-0.0546875,0-0.1103516-0.0244141-0.1591797-0.0551758
			l-0.8466797-0.6625977c-0.1777344,0.0922852-0.3681641,0.171875-0.5576172,0.2333984
			c-0.0429688,0.3740234-0.0800781,0.7724609-0.1787109,1.140625c-0.0244141,0.0981445-0.1103516,0.171875-0.2207031,0.171875
			h-1.3613281c-0.1103516,0-0.2089844-0.0795898-0.2207031-0.184082l-0.171875-1.128418
			c-0.1904297-0.0615234-0.3740234-0.1352539-0.5527344-0.2270508l-0.8642578,0.65625
			c-0.0429688,0.0366211-0.0986328,0.0551758-0.1533203,0.0551758c-0.0556641,0-0.1103516-0.0244141-0.1533203-0.0673828
			c-0.3251953-0.2944336-0.7548828-0.6748047-1.0126953-1.0307617c-0.0302734-0.0429688-0.0429688-0.0917969-0.0429688-0.1411133
			c0-0.0551758,0.0185547-0.0981445,0.0498047-0.140625c0.2080078-0.2822266,0.4355469-0.5522461,0.6435547-0.8408203
			c-0.1044922-0.1962891-0.1904297-0.3984375-0.2509766-0.6069336l-1.1230469-0.1655273
			C131.0732422,56.9453125,131,56.847168,131,56.7426758v-1.3618164c0-0.0917969,0.0732422-0.2021484,0.1660156-0.2207031
			l1.140625-0.171875c0.0615234-0.1962891,0.140625-0.3798828,0.2392578-0.5639648
			c-0.2089844-0.2944336-0.4296875-0.5708008-0.65625-0.8466797c-0.0371094-0.0429688-0.0615234-0.0917969-0.0615234-0.1469727
			c0-0.0556641,0.0244141-0.0981445,0.0546875-0.1411133c0.1474609-0.2026367,0.9755859-1.0981445,1.1845703-1.0981445
			c0.0546875,0,0.1103516,0.0244141,0.1591797,0.0615234l0.8466797,0.65625
			c0.1777344-0.0922852,0.3681641-0.171875,0.5576172-0.2333984c0.0429688-0.3740234,0.0800781-0.7724609,0.1787109-1.140625
			c0.0244141-0.0981445,0.1103516-0.171875,0.2207031-0.171875h1.3613281c0.1103516,0,0.2089844,0.0795898,0.2207031,0.184082
			l0.171875,1.128418c0.1904297,0.0615234,0.3740234,0.1352539,0.5527344,0.2270508l0.8701172-0.65625
			c0.0371094-0.0366211,0.0927734-0.0551758,0.1474609-0.0551758c0.0556641,0,0.1103516,0.0244141,0.1533203,0.0615234
			c0.3251953,0.300293,0.7548828,0.6806641,1.0126953,1.0424805c0.0302734,0.0371094,0.0429688,0.0859375,0.0429688,0.1352539
			c0,0.0551758-0.0185547,0.0981445-0.0498047,0.140625c-0.2080078,0.2822266-0.4355469,0.5522461-0.6435547,0.8408203
			c0.1044922,0.1962891,0.1904297,0.3984375,0.2509766,0.6010742l1.1230469,0.1713867
			c0.1044922,0.0185547,0.1777344,0.1166992,0.1777344,0.2211914V56.7675781z M135.7109375,54.5039062
			c-0.8652344,0-1.5703125,0.7055664-1.5703125,1.5703125s0.7050781,1.5703125,1.5703125,1.5703125
			s1.5703125-0.7055664,1.5703125-1.5703125S136.5761719,54.5039062,135.7109375,54.5039062z"/>
	</g>
</g>
<g id="EnumerationLiteral">
	
		<rect x="7.3786798" y="71.3786774" transform="matrix(-0.7071068 0.7071068 -0.7071068 -0.7071068 68.1898651 118.754837)" fill="none" stroke="#E3ECEE" stroke-miterlimit="10" width="4.2426405" height="4.2426405"/>
</g>
<g id="Extension_Point">
	
		<rect x="21.9644661" y="71.3786774" transform="matrix(-0.7071068 0.7071068 -0.7071068 -0.7071068 95.5035706 107.441124)" fill="none" stroke="#E3ECEE" stroke-miterlimit="10" width="7.0710678" height="4.2426405"/>
	<g>
		<line fill="none" stroke="#E3ECEE" stroke-miterlimit="10" x1="19" y1="69.5" x2="24" y2="69.5"/>
		<line fill="none" stroke="#E3ECEE" stroke-miterlimit="10" x1="21.5" y1="72" x2="21.5" y2="67"/>
	</g>
</g>
<g id="Association">
	<polyline fill="none" stroke="#E3ECEE" stroke-miterlimit="10" points="2,189.5 11.5,189.5 11.5,178 	"/>
</g>
<g id="Aggregation">
	<polyline fill="none" stroke="#E3ECEE" stroke-miterlimit="10" points="18,189.5 27.5,189.5 27.5,183 	"/>
	
		<rect x="25.3786793" y="178.3786774" transform="matrix(-0.7071068 0.7071068 -0.7071068 -0.7071068 174.5782166 288.6873474)" fill="none" stroke="#E3ECEE" stroke-miterlimit="10" width="4.2426405" height="4.2426405"/>
</g>
<g id="Composition">
	<polyline fill="none" stroke="#E3ECEE" stroke-miterlimit="10" points="34,189.5 43.5,189.5 43.5,183 	"/>
	
		<rect x="41.3786812" y="178.3786774" transform="matrix(-0.7071068 0.7071068 -0.7071068 -0.7071068 201.891922 277.3736267)" fill="#E3ECEE" stroke="#E3ECEE" stroke-miterlimit="10" width="4.2426405" height="4.2426405"/>
</g>
<g id="TextColor">
	<g>
		<path fill="#E3ECEE" d="M10.2353516,138.5097656H5.6210938L4.8125,140.390625
			c-0.1992188,0.4628906-0.2988281,0.8085938-0.2988281,1.0371094c0,0.1816406,0.0864258,0.3417969,0.2592773,0.4785156
			c0.1728516,0.1386719,0.5463867,0.2275391,1.1206055,0.2685547V142.5H2.140625v-0.3251953
			c0.4980469-0.0878906,0.8203125-0.2021484,0.9667969-0.3427734c0.2988281-0.28125,0.6298828-0.8525391,0.9931641-1.7138672
			l4.1923828-9.8085938h0.3076172l4.1484375,9.9140625c0.3339844,0.796875,0.637207,1.3134766,0.909668,1.5517578
			c0.2724609,0.2363281,0.6518555,0.3701172,1.1381836,0.3994141V142.5h-4.7021484v-0.3251953
			c0.4746094-0.0234375,0.7954102-0.1025391,0.9624023-0.2373047s0.2504883-0.2988281,0.2504883-0.4921875
			c0-0.2578125-0.1171875-0.6650391-0.3515625-1.2216797L10.2353516,138.5097656z M9.9892578,137.859375l-2.0214844-4.8164062
			l-2.0742188,4.8164062H9.9892578z"/>
	</g>
</g>
<g id="LineColor">
	<polygon fill="#E3ECEE" points="20,138 22,140 18,142 	"/>
	
		<rect x="23.0857868" y="131.9644623" transform="matrix(-0.7071068 -0.7071068 0.7071068 -0.7071068 -53.9888458 248.637085)" fill="#E3ECEE" width="2.8284271" height="7.0710678"/>
	
		<rect x="27.0857868" y="130.7928925" transform="matrix(-0.7071068 -0.7071068 0.7071068 -0.7071068 -44.3320007 244.637085)" fill="#E3ECEE" width="2.8284271" height="1.4142135"/>
</g>
<g id="FillColor">
	<rect x="34.5" y="129.5" opacity="0.7" fill="#E3ECEE" width="10" height="4"/>
	<polyline fill="none" stroke="#E3ECEE" stroke-miterlimit="10" points="44.9995117,131.5 46.4995117,131.5 46.4995117,135 
		39.4995117,136.5 39.4995117,143 	"/>
	<rect x="38.4995117" y="138.5" fill="#E3ECEE" stroke="#E3ECEE" stroke-miterlimit="10" width="2" height="4"/>
	<rect x="34.5" y="129.5" fill="none" stroke="#E3ECEE" stroke-miterlimit="10" width="10" height="4"/>
</g>
<g id="BringToFront">
	<rect x="180.5" y="131.5" opacity="0.7" fill="#E3ECEE" width="8" height="8"/>
	<rect x="180.5" y="131.5" fill="none" stroke="#E3ECEE" stroke-miterlimit="10" width="8" height="8"/>
	<polyline fill="none" stroke="#E3ECEE" stroke-miterlimit="10" points="180.5,135.5 177.5,135.5 177.5,129.5 183.5,129.5 
		183.5,131.5 	"/>
	<polyline fill="none" stroke="#E3ECEE" stroke-miterlimit="10" points="188.5,136.5 191.5,136.5 191.5,142.5 185.5,142.5 
		185.5,139.5 	"/>
</g>
<g id="SendToBack">
	<rect x="199.5" y="131.5" opacity="0.7" fill="#E3ECEE" width="5" height="4.5"/>
	<rect x="196.5" y="135.5" opacity="0.7" fill="#E3ECEE" width="5" height="4"/>
	<polygon fill="none" stroke="#E3ECEE" stroke-miterlimit="10" points="196.5,135.5 196.5,139.5 201.5,139.5 201.5,136.5 
		204.5,136.5 204.5,131.5 199.5,131.5 199.5,135.5 	"/>
	<rect x="193.5" y="129.5" fill="none" stroke="#E3ECEE" stroke-miterlimit="10" width="6" height="6"/>
	<rect x="201.5" y="136.5" fill="none" stroke="#E3ECEE" stroke-miterlimit="10" width="6" height="6"/>
</g>
<g id="Align_Left">
	<line fill="none" stroke="#E3ECEE" stroke-miterlimit="10" x1="211.5" y1="129" x2="211.5" y2="142"/>
	<rect x="213.5" y="131.5" fill="none" stroke="#E3ECEE" stroke-miterlimit="10" width="5" height="3"/>
	<rect x="213.5" y="136.5" fill="none" stroke="#E3ECEE" stroke-miterlimit="10" width="8" height="3"/>
	<rect x="214" y="132" opacity="0.7" fill="#E3ECEE" width="4" height="2"/>
</g>
<g id="Align_Right">
	<line fill="none" stroke="#E3ECEE" stroke-miterlimit="10" x1="12.5" y1="145" x2="12.5" y2="158"/>
	<rect x="5.5" y="147.5" fill="none" stroke="#E3ECEE" stroke-miterlimit="10" width="5" height="3"/>
	<rect x="2.5" y="152.5" fill="none" stroke="#E3ECEE" stroke-miterlimit="10" width="8" height="3"/>
	<rect x="6" y="148" opacity="0.7" fill="#E3ECEE" width="4" height="2"/>
</g>
<g id="Align_Center">
	<rect x="20.5" y="147.5" fill="none" stroke="#E3ECEE" stroke-miterlimit="10" width="6" height="3"/>
	<rect x="18.5" y="152.5" fill="none" stroke="#E3ECEE" stroke-miterlimit="10" width="10" height="3"/>
	<line fill="none" stroke="#E3ECEE" stroke-miterlimit="10" x1="23.5" y1="145" x2="23.5" y2="147"/>
	<line fill="none" stroke="#E3ECEE" stroke-miterlimit="10" x1="23.5" y1="151" x2="23.5" y2="152"/>
	<line fill="none" stroke="#E3ECEE" stroke-miterlimit="10" x1="23.5" y1="156" x2="23.5" y2="158"/>
</g>
<g id="Align_Top">
	<line fill="none" stroke="#E3ECEE" stroke-miterlimit="10" x1="34" y1="146.5" x2="47" y2="146.5"/>
	<rect x="36.5" y="148.5" fill="none" stroke="#E3ECEE" stroke-miterlimit="10" width="3" height="5"/>
	<rect x="41.5" y="148.5" fill="none" stroke="#E3ECEE" stroke-miterlimit="10" width="3" height="8"/>
	<rect x="37" y="149" opacity="0.7" fill="#E3ECEE" width="2" height="4"/>
</g>
<g id="Align_Bottom">
	<line fill="none" stroke="#E3ECEE" stroke-miterlimit="10" x1="50" y1="156.5" x2="63.0004883" y2="156.5"/>
	<rect x="57.5" y="146.5" fill="none" stroke="#E3ECEE" stroke-miterlimit="10" width="3" height="8"/>
	<rect x="52.5" y="149.5" fill="none" stroke="#E3ECEE" stroke-miterlimit="10" width="3" height="5"/>
	<rect x="53" y="150" opacity="0.7" fill="#E3ECEE" width="2" height="4"/>
</g>
<g id="Align_Middle">
	<line fill="none" stroke="#E3ECEE" stroke-miterlimit="10" x1="72" y1="151.5" x2="73" y2="151.5"/>
	<rect x="73.5" y="146.5" fill="none" stroke="#E3ECEE" stroke-miterlimit="10" width="3" height="10"/>
	<rect x="68.5" y="148.5" fill="none" stroke="#E3ECEE" stroke-miterlimit="10" width="3" height="6"/>
	<line fill="none" stroke="#E3ECEE" stroke-miterlimit="10" x1="77" y1="151.5" x2="79" y2="151.5"/>
	<line fill="none" stroke="#E3ECEE" stroke-miterlimit="10" x1="66" y1="151.5" x2="68" y2="151.5"/>
	<rect x="69" y="149" opacity="0.7" fill="#E3ECEE" width="2" height="5"/>
</g>
<g id="Space_Equally_x2C__Horz">
	<rect x="81.5" y="151.5" fill="none" stroke="#E3ECEE" stroke-miterlimit="10" width="3" height="4"/>
	<rect x="86.5" y="151.5" fill="none" stroke="#E3ECEE" stroke-miterlimit="10" width="3" height="6"/>
	<rect x="91.5" y="151.5" fill="none" stroke="#E3ECEE" stroke-miterlimit="10" width="3" height="3"/>
	<rect x="87" y="152" opacity="0.7" fill="#E3ECEE" width="2" height="5"/>
	<line fill="none" stroke="#E3ECEE" stroke-miterlimit="10" x1="84.5" y1="150" x2="84.5" y2="147"/>
	<line fill="none" stroke="#E3ECEE" stroke-miterlimit="10" x1="86.5" y1="150" x2="86.5" y2="147"/>
	<line fill="none" stroke="#E3ECEE" stroke-miterlimit="10" x1="89.5" y1="150" x2="89.5" y2="147"/>
	<line fill="none" stroke="#E3ECEE" stroke-miterlimit="10" x1="91.5" y1="150" x2="91.5" y2="147"/>
	<rect x="99" y="151" opacity="0.7" fill="#E3ECEE" width="5" height="2"/>
	<line fill="none" stroke="#E3ECEE" stroke-miterlimit="10" x1="106" y1="148.5" x2="109" y2="148.5"/>
	<line fill="none" stroke="#E3ECEE" stroke-miterlimit="10" x1="106" y1="150.5" x2="109" y2="150.5"/>
	<line fill="none" stroke="#E3ECEE" stroke-miterlimit="10" x1="106" y1="153.5" x2="109" y2="153.5"/>
	<line fill="none" stroke="#E3ECEE" stroke-miterlimit="10" x1="106" y1="155.5" x2="109" y2="155.5"/>
</g>
<g id="Space_Equally_x2C__Vert">
	<rect x="101.5" y="145.5" fill="none" stroke="#E3ECEE" stroke-miterlimit="10" width="3" height="3"/>
	<rect x="100.5" y="155.5" fill="none" stroke="#E3ECEE" stroke-miterlimit="10" width="4" height="3"/>
	<rect x="98.5" y="150.5" fill="none" stroke="#E3ECEE" stroke-miterlimit="10" width="6" height="3"/>
	<rect x="21" y="148" opacity="0.7" fill="#E3ECEE" width="5" height="2"/>
</g>
<g id="Set_Width_Equally">
	<rect x="3.5" y="197.5" fill="none" stroke="#E3ECEE" stroke-miterlimit="10" width="9" height="3"/>
	<rect x="3.5" y="202.5" fill="none" stroke="#E3ECEE" stroke-miterlimit="10" width="9" height="3"/>
	<line fill="none" stroke="#E3ECEE" stroke-miterlimit="10" x1="3.5004883" y1="196" x2="3.5004883" y2="193"/>
	<line fill="none" stroke="#E3ECEE" stroke-miterlimit="10" x1="12.5004883" y1="196" x2="12.5004883" y2="193"/>
	<rect x="4.0004883" y="203" opacity="0.7" fill="#E3ECEE" width="8" height="2"/>
</g>
<g id="Set_Height_Equally">
	<rect x="18.5" y="195.5" fill="none" stroke="#E3ECEE" stroke-miterlimit="10" width="3" height="9"/>
	<rect x="23.5" y="195.5" fill="none" stroke="#E3ECEE" stroke-miterlimit="10" width="3" height="9"/>
	<rect x="19.0004883" y="196" opacity="0.7" fill="#E3ECEE" width="2" height="8"/>
	<line fill="none" stroke="#E3ECEE" stroke-miterlimit="10" x1="28" y1="195.5" x2="31" y2="195.5"/>
	<line fill="none" stroke="#E3ECEE" stroke-miterlimit="10" x1="28" y1="204.5" x2="31" y2="204.5"/>
</g>
<g id="Set_Size_Equally">
	<rect x="35.5" y="198.5" fill="none" stroke="#E3ECEE" stroke-miterlimit="10" width="6" height="6"/>
	<rect x="36" y="199" opacity="0.7" fill="#E3ECEE" width="5" height="5"/>
	<line fill="none" stroke="#E3ECEE" stroke-miterlimit="10" x1="43" y1="198.5" x2="46" y2="198.5"/>
	<line fill="none" stroke="#E3ECEE" stroke-miterlimit="10" x1="43" y1="204.5" x2="46" y2="204.5"/>
	<line fill="none" stroke="#E3ECEE" stroke-miterlimit="10" x1="35.5" y1="197" x2="35.5" y2="194"/>
	<line fill="none" stroke="#E3ECEE" stroke-miterlimit="10" x1="41.5" y1="197" x2="41.5" y2="194"/>
</g>
<g id="AutoResize">
	<rect x="193.5" y="161.5" fill="none" stroke="#E3ECEE" stroke-miterlimit="10" width="8" height="8"/>
	<g>
		<g>
			<line fill="none" stroke="#E3ECEE" stroke-miterlimit="10" x1="194.5" y1="169.5" x2="194.5" y2="170.25"/>
			
				<line fill="none" stroke="#E3ECEE" stroke-miterlimit="10" stroke-dasharray="1.16667,1.16667" x1="194.5" y1="171.4169922" x2="194.5" y2="173.1669922"/>
			<polyline fill="none" stroke="#E3ECEE" stroke-miterlimit="10" points="194.5,173.75 194.5,174.5 195.25,174.5 			"/>
			
				<line fill="none" stroke="#E3ECEE" stroke-miterlimit="10" stroke-dasharray="1.5,1.5" x1="196.75" y1="174.5" x2="205" y2="174.5"/>
			<polyline fill="none" stroke="#E3ECEE" stroke-miterlimit="10" points="205.75,174.5 206.5,174.5 206.5,173.75 			"/>
			
				<line fill="none" stroke="#E3ECEE" stroke-miterlimit="10" stroke-dasharray="1.5,1.5" x1="206.5" y1="172.25" x2="206.5" y2="164"/>
			<polyline fill="none" stroke="#E3ECEE" stroke-miterlimit="10" points="206.5,163.25 206.5,162.5 205.75,162.5 			"/>
			
				<line fill="none" stroke="#E3ECEE" stroke-miterlimit="10" stroke-dasharray="1.16667,1.16667" x1="204.5830078" y1="162.5" x2="202.8330078" y2="162.5"/>
			<line fill="none" stroke="#E3ECEE" stroke-miterlimit="10" x1="202.25" y1="162.5" x2="201.5" y2="162.5"/>
		</g>
	</g>
	<g>
		<g>
			
				<line fill="none" stroke="#E3ECEE" stroke-miterlimit="10" x1="203.1152344" y1="171.1152344" x2="205.8847656" y2="173.8847656"/>
			<g>
				<polygon fill="#E3ECEE" points="204.5761719,170 202,172.5761719 202,170 				"/>
			</g>
			<g>
				<polygon fill="#E3ECEE" points="207,172.4238281 204.4238281,175 207,175 				"/>
			</g>
		</g>
	</g>
</g>
<g id="MoveUp">
	<polygon fill="#E3ECEE" stroke="#E3ECEE" stroke-miterlimit="10" points="21.5004883,166.5 24.5004883,163.5 27.5004883,166.5 
		25.5004883,166.5 25.5004883,172.5 23.5004883,172.5 23.5004883,166.5 	"/>
</g>
<g id="MoveDown">
	<polygon fill="#E3ECEE" stroke="#E3ECEE" stroke-miterlimit="10" points="43.5,169.5 40.5,172.5 37.5,169.5 39.5,169.5 39.5,163.5 
		41.5,163.5 41.5,169.5 	"/>
</g>
<g id="Add">
	<polygon fill="#E3ECEE" stroke="#E3ECEE" stroke-miterlimit="10" points="54.5,163.5 56.5,163.5 56.5,166.5 59.5,166.5 59.5,168.5 
		56.5,168.5 56.5,171.5 54.5,171.5 54.5,168.5 51.5,168.5 51.5,166.5 54.5,166.5 	"/>
</g>
<g id="Delete">
	<polygon fill="#E3ECEE" stroke="#E3ECEE" stroke-miterlimit="10" points="67.9648438,165.3789062 69.3789062,163.9648438 
		71.5,166.0859375 73.6210938,163.9648438 75.0351562,165.3789062 72.9140625,167.5 75.0351562,169.6210938 73.6210938,171.0361328 
		71.5,168.9150391 69.3789062,171.0361328 67.9648438,169.6210938 70.0859375,167.5 	"/>
</g>
<g id="Edit">
	<polygon fill="none" stroke="#E3ECEE" stroke-miterlimit="10" points="83.5,163.5 83.5,172.5 92.5,172.5 92.5,166.5 89.5,163.5 	
		"/>
	<polyline fill="none" stroke="#E3ECEE" stroke-miterlimit="10" points="89.5,164 89.5,166.5 92,166.5 	"/>
	<line fill="none" stroke="#E3ECEE" stroke-miterlimit="10" x1="85" y1="170.5" x2="91" y2="170.5"/>
	<line fill="none" stroke="#E3ECEE" stroke-miterlimit="10" x1="85" y1="168.5" x2="91" y2="168.5"/>
	<line fill="none" stroke="#E3ECEE" stroke-miterlimit="10" x1="85" y1="165.5" x2="88" y2="165.5"/>
</g>
<g id="ExitPoint">
</g>
<g id="SelectOperation">
	<line fill="none" stroke="#E3ECEE" stroke-width="2" stroke-miterlimit="10" x1="145" y1="50" x2="151" y2="50"/>
	<line fill="none" stroke="#E3ECEE" stroke-width="2" stroke-miterlimit="10" x1="145" y1="53" x2="151" y2="53"/>
	<g>
		<path fill="#E3ECEE" d="M158.921875,58.7675781c0,0.0917969-0.0732422,0.2021484-0.171875,0.2207031l-1.1347656,0.171875
			c-0.0673828,0.1962891-0.140625,0.3798828-0.2392578,0.5581055c0.2089844,0.300293,0.4296875,0.5703125,0.65625,0.8461914
			c0.0371094,0.0429688,0.0615234,0.0981445,0.0615234,0.1533203c0,0.0556641-0.0185547,0.0981445-0.0546875,0.1411133
			c-0.1474609,0.1962891-0.9755859,1.0981445-1.1845703,1.0981445c-0.0546875,0-0.1103516-0.0244141-0.1591797-0.0551758
			l-0.8466797-0.6625977c-0.1777344,0.0922852-0.3681641,0.171875-0.5576172,0.2333984
			c-0.0429688,0.3740234-0.0800781,0.7724609-0.1787109,1.140625c-0.0244141,0.0981445-0.1103516,0.171875-0.2207031,0.171875
			h-1.3613281c-0.1103516,0-0.2089844-0.0795898-0.2207031-0.184082l-0.171875-1.128418
			c-0.1904297-0.0615234-0.3740234-0.1352539-0.5527344-0.2270508l-0.8642578,0.65625
			c-0.0429688,0.0366211-0.0986328,0.0551758-0.1533203,0.0551758c-0.0556641,0-0.1103516-0.0244141-0.1533203-0.0673828
			c-0.3251953-0.2944336-0.7548828-0.6748047-1.0126953-1.0307617c-0.0302734-0.0429688-0.0429688-0.0917969-0.0429688-0.1411133
			c0-0.0551758,0.0185547-0.0981445,0.0498047-0.140625c0.2080078-0.2822266,0.4355469-0.5522461,0.6435547-0.8408203
			c-0.1044922-0.1962891-0.1904297-0.3984375-0.2509766-0.6069336l-1.1230469-0.1655273
			C149.5732422,58.9453125,149.5,58.847168,149.5,58.7426758v-1.3618164c0-0.0917969,0.0732422-0.2021484,0.1660156-0.2207031
			l1.140625-0.171875c0.0615234-0.1962891,0.140625-0.3798828,0.2392578-0.5639648
			c-0.2089844-0.2944336-0.4296875-0.5708008-0.65625-0.8466797c-0.0371094-0.0429688-0.0615234-0.0917969-0.0615234-0.1469727
			c0-0.0556641,0.0244141-0.0981445,0.0546875-0.1411133c0.1474609-0.2026367,0.9755859-1.0981445,1.1845703-1.0981445
			c0.0546875,0,0.1103516,0.0244141,0.1591797,0.0615234l0.8466797,0.65625
			c0.1777344-0.0922852,0.3681641-0.171875,0.5576172-0.2333984c0.0429688-0.3740234,0.0800781-0.7724609,0.1787109-1.140625
			c0.0244141-0.0981445,0.1103516-0.171875,0.2207031-0.171875h1.3613281c0.1103516,0,0.2089844,0.0795898,0.2207031,0.184082
			l0.171875,1.128418c0.1904297,0.0615234,0.3740234,0.1352539,0.5527344,0.2270508l0.8701172-0.65625
			c0.0371094-0.0366211,0.0927734-0.0551758,0.1474609-0.0551758c0.0556641,0,0.1103516,0.0244141,0.1533203,0.0615234
			c0.3251953,0.300293,0.7548828,0.6806641,1.0126953,1.0424805c0.0302734,0.0371094,0.0429688,0.0859375,0.0429688,0.1352539
			c0,0.0551758-0.0185547,0.0981445-0.0498047,0.140625c-0.2080078,0.2822266-0.4355469,0.5522461-0.6435547,0.8408203
			c0.1044922,0.1962891,0.1904297,0.3984375,0.2509766,0.6010742l1.1230469,0.1713867
			c0.1044922,0.0185547,0.1777344,0.1166992,0.1777344,0.2211914V58.7675781z M154.2109375,56.5039062
			c-0.8652344,0-1.5703125,0.7055664-1.5703125,1.5703125s0.7050781,1.5703125,1.5703125,1.5703125
			s1.5703125-0.7055664,1.5703125-1.5703125S155.0761719,56.5039062,154.2109375,56.5039062z"/>
	</g>
</g>
<g id="CreateOperation">
	<line fill="none" stroke="#E3ECEE" stroke-width="2" stroke-miterlimit="10" x1="161" y1="52" x2="167" y2="52"/>
	<line fill="none" stroke="#E3ECEE" stroke-width="2" stroke-miterlimit="10" x1="164" y1="49" x2="164" y2="55"/>
	<g>
		<path fill="#E3ECEE" d="M174.921875,58.7675781c0,0.0917969-0.0732422,0.2021484-0.171875,0.2207031l-1.1347656,0.171875
			c-0.0673828,0.1962891-0.140625,0.3798828-0.2392578,0.5581055c0.2089844,0.300293,0.4296875,0.5703125,0.65625,0.8461914
			c0.0371094,0.0429688,0.0615234,0.0981445,0.0615234,0.1533203c0,0.0556641-0.0185547,0.0981445-0.0546875,0.1411133
			c-0.1474609,0.1962891-0.9755859,1.0981445-1.1845703,1.0981445c-0.0546875,0-0.1103516-0.0244141-0.1591797-0.0551758
			l-0.8466797-0.6625977c-0.1777344,0.0922852-0.3681641,0.171875-0.5576172,0.2333984
			c-0.0429688,0.3740234-0.0800781,0.7724609-0.1787109,1.140625c-0.0244141,0.0981445-0.1103516,0.171875-0.2207031,0.171875
			h-1.3613281c-0.1103516,0-0.2089844-0.0795898-0.2207031-0.184082l-0.171875-1.128418
			c-0.1904297-0.0615234-0.3740234-0.1352539-0.5527344-0.2270508l-0.8642578,0.65625
			c-0.0429688,0.0366211-0.0986328,0.0551758-0.1533203,0.0551758c-0.0556641,0-0.1103516-0.0244141-0.1533203-0.0673828
			c-0.3251953-0.2944336-0.7548828-0.6748047-1.0126953-1.0307617c-0.0302734-0.0429688-0.0429688-0.0917969-0.0429688-0.1411133
			c0-0.0551758,0.0185547-0.0981445,0.0498047-0.140625c0.2080078-0.2822266,0.4355469-0.5522461,0.6435547-0.8408203
			c-0.1044922-0.1962891-0.1904297-0.3984375-0.2509766-0.6069336l-1.1230469-0.1655273
			C165.5732422,58.9453125,165.5,58.847168,165.5,58.7426758v-1.3618164c0-0.0917969,0.0732422-0.2021484,0.1660156-0.2207031
			l1.140625-0.171875c0.0615234-0.1962891,0.140625-0.3798828,0.2392578-0.5639648
			c-0.2089844-0.2944336-0.4296875-0.5708008-0.65625-0.8466797c-0.0371094-0.0429688-0.0615234-0.0917969-0.0615234-0.1469727
			c0-0.0556641,0.0244141-0.0981445,0.0546875-0.1411133c0.1474609-0.2026367,0.9755859-1.0981445,1.1845703-1.0981445
			c0.0546875,0,0.1103516,0.0244141,0.1591797,0.0615234l0.8466797,0.65625
			c0.1777344-0.0922852,0.3681641-0.171875,0.5576172-0.2333984c0.0429688-0.3740234,0.0800781-0.7724609,0.1787109-1.140625
			c0.0244141-0.0981445,0.1103516-0.171875,0.2207031-0.171875h1.3613281c0.1103516,0,0.2089844,0.0795898,0.2207031,0.184082
			l0.171875,1.128418c0.1904297,0.0615234,0.3740234,0.1352539,0.5527344,0.2270508l0.8701172-0.65625
			c0.0371094-0.0366211,0.0927734-0.0551758,0.1474609-0.0551758c0.0556641,0,0.1103516,0.0244141,0.1533203,0.0615234
			c0.3251953,0.300293,0.7548828,0.6806641,1.0126953,1.0424805c0.0302734,0.0371094,0.0429688,0.0859375,0.0429688,0.1352539
			c0,0.0551758-0.0185547,0.0981445-0.0498047,0.140625c-0.2080078,0.2822266-0.4355469,0.5522461-0.6435547,0.8408203
			c0.1044922,0.1962891,0.1904297,0.3984375,0.2509766,0.6010742l1.1230469,0.1713867
			c0.1044922,0.0185547,0.1777344,0.1166992,0.1777344,0.2211914V58.7675781z M170.2109375,56.5039062
			c-0.8652344,0-1.5703125,0.7055664-1.5703125,1.5703125s0.7050781,1.5703125,1.5703125,1.5703125
			s1.5703125-0.7055664,1.5703125-1.5703125S171.0761719,56.5039062,170.2109375,56.5039062z"/>
	</g>
</g>
<g id="SelectType">
	<line fill="none" stroke="#E3ECEE" stroke-width="2" stroke-miterlimit="10" x1="33" y1="98" x2="39" y2="98"/>
	<line fill="none" stroke="#E3ECEE" stroke-width="2" stroke-miterlimit="10" x1="33" y1="101" x2="39" y2="101"/>
	<rect x="38.5" y="103.5" fill="none" stroke="#E3ECEE" stroke-miterlimit="10" width="8" height="7"/>
	<line fill="none" stroke="#E3ECEE" stroke-miterlimit="10" x1="38.5" y1="108.5" x2="47" y2="108.5"/>
	<line fill="none" stroke="#E3ECEE" stroke-miterlimit="10" x1="38.5" y1="106.5" x2="46.5" y2="106.5"/>
</g>
<g id="CreateType">
	<rect x="54.5" y="103.5" fill="none" stroke="#E3ECEE" stroke-miterlimit="10" width="8" height="7"/>
	<line fill="none" stroke="#E3ECEE" stroke-miterlimit="10" x1="54.5" y1="108.5" x2="63" y2="108.5"/>
	<line fill="none" stroke="#E3ECEE" stroke-miterlimit="10" x1="54.5" y1="106.5" x2="62.5" y2="106.5"/>
	<line fill="none" stroke="#E3ECEE" stroke-width="2" stroke-miterlimit="10" x1="49" y1="100" x2="55" y2="100"/>
	<line fill="none" stroke="#E3ECEE" stroke-width="2" stroke-miterlimit="10" x1="52" y1="97" x2="52" y2="103"/>
</g>
<g id="SelectSignal">
	<line fill="none" stroke="#E3ECEE" stroke-width="2" stroke-miterlimit="10" x1="1" y1="82" x2="7" y2="82"/>
	<line fill="none" stroke="#E3ECEE" stroke-width="2" stroke-miterlimit="10" x1="1" y1="85" x2="7" y2="85"/>
	<polyline fill="none" stroke="#E3ECEE" stroke-miterlimit="10" points="4,90.5 7.5,90.5 7.5,87.5 9.5,87.5 9.5,93.5 11.5,93.5 
		11.5,90.5 15,90.5 	"/>
</g>
<g id="CreateSignal">
	<line fill="none" stroke="#E3ECEE" stroke-width="2" stroke-miterlimit="10" x1="17" y1="84" x2="23" y2="84"/>
	<line fill="none" stroke="#E3ECEE" stroke-width="2" stroke-miterlimit="10" x1="20" y1="81" x2="20" y2="87"/>
	<polyline fill="none" stroke="#E3ECEE" stroke-miterlimit="10" points="20,90.5 23.5,90.5 23.5,87.5 25.5,87.5 25.5,93.5 
		27.5,93.5 27.5,90.5 31,90.5 	"/>
</g>
<g id="SuppressAttributes">
	<line fill="none" stroke="#E3ECEE" stroke-miterlimit="10" x1="65.0004883" y1="130.5" x2="79.0004883" y2="130.5"/>
	<line fill="none" stroke="#E3ECEE" stroke-miterlimit="10" x1="65.0004883" y1="142.5" x2="79.0004883" y2="142.5"/>
	
		<rect x="69.9644623" y="134.3786774" transform="matrix(-0.7071068 0.7071068 -0.7071068 -0.7071068 221.9924164 181.0477295)" fill="none" stroke="#E3ECEE" stroke-miterlimit="10" width="7.0710678" height="4.2426405"/>
	<line fill="none" stroke="#E3ECEE" stroke-miterlimit="10" x1="66" y1="132" x2="69" y2="135"/>
	<line fill="none" stroke="#E3ECEE" stroke-miterlimit="10" x1="66" y1="135" x2="69" y2="132"/>
</g>
<g id="SuppressOperations">
	<line fill="none" stroke="#E3ECEE" stroke-miterlimit="10" x1="81" y1="130.5" x2="95" y2="130.5"/>
	<line fill="none" stroke="#E3ECEE" stroke-miterlimit="10" x1="81" y1="142.5" x2="95" y2="142.5"/>
	<line fill="none" stroke="#E3ECEE" stroke-miterlimit="10" x1="81.9995117" y1="132" x2="84.9995117" y2="135"/>
	<line fill="none" stroke="#E3ECEE" stroke-miterlimit="10" x1="81.9995117" y1="135" x2="84.9995117" y2="132"/>
	<g>
		<path fill="#E3ECEE" d="M93.9296875,137.0322266c0,0.0771484-0.0581055,0.1699219-0.1352539,0.1855469l-0.8950195,0.1445312
			c-0.0532227,0.1650391-0.1113281,0.3193359-0.1884766,0.46875c0.1640625,0.2529297,0.3383789,0.4804688,0.5175781,0.7119141
			c0.0288086,0.0361328,0.0483398,0.0830078,0.0483398,0.1289062c0,0.046875-0.0146484,0.0830078-0.043457,0.1191406
			c-0.1162109,0.1650391-0.7695312,0.9228516-0.9335938,0.9228516c-0.0439453,0-0.0874023-0.0205078-0.1259766-0.0458984
			l-0.6674805-0.5576172c-0.1401367,0.0771484-0.2900391,0.1445312-0.4399414,0.1962891
			c-0.0341797,0.3144531-0.0629883,0.6494141-0.140625,0.9589844c-0.019043,0.0830078-0.0869141,0.1445312-0.1738281,0.1445312
			h-1.0742188c-0.0869141,0-0.1640625-0.0673828-0.1738281-0.1542969l-0.1357422-0.9492188
			c-0.1499023-0.0517578-0.2949219-0.1132812-0.4350586-0.1914062l-0.6821289,0.5527344
			c-0.0336914,0.0302734-0.0771484,0.0458984-0.1210938,0.0458984c-0.043457,0-0.0869141-0.0205078-0.1206055-0.0566406
			c-0.2563477-0.2480469-0.5952148-0.5673828-0.7983398-0.8662109c-0.0239258-0.0361328-0.0336914-0.078125-0.0336914-0.1191406
			c0-0.0458984,0.0146484-0.0820312,0.0385742-0.1181641c0.1645508-0.2373047,0.3432617-0.4648438,0.5078125-0.7070312
			c-0.0820312-0.1650391-0.1499023-0.3349609-0.1982422-0.5107422l-0.8852539-0.1386719
			C86.5581055,137.1816406,86.5,137.0986328,86.5,137.0117188v-1.1455078c0-0.0771484,0.0581055-0.1699219,0.1303711-0.1855469
			l0.8999023-0.1445312c0.0483398-0.1650391,0.1113281-0.3193359,0.1884766-0.4746094
			c-0.1640625-0.2470703-0.3383789-0.4794922-0.5175781-0.7109375c-0.0288086-0.0361328-0.0483398-0.078125-0.0483398-0.1240234
			c0-0.046875,0.0195312-0.0830078,0.043457-0.1191406c0.1162109-0.1699219,0.7695312-0.9228516,0.9335938-0.9228516
			c0.0439453,0,0.0874023,0.0205078,0.1259766,0.0517578l0.6674805,0.5517578
			c0.1401367-0.0771484,0.2900391-0.1445312,0.4399414-0.1962891c0.0341797-0.3144531,0.0629883-0.6494141,0.140625-0.9589844
			c0.019043-0.0830078,0.0869141-0.1445312,0.1738281-0.1445312h1.0742188c0.0869141,0,0.1640625,0.0673828,0.1738281,0.1542969
			l0.1357422,0.9492188c0.1499023,0.0517578,0.2949219,0.1132812,0.4350586,0.1914062l0.6870117-0.5527344
			c0.0288086-0.0302734,0.0722656-0.0458984,0.1162109-0.0458984c0.043457,0,0.0869141,0.0205078,0.1206055,0.0517578
			c0.2563477,0.2529297,0.5952148,0.5722656,0.7983398,0.8769531c0.0239258,0.0302734,0.0336914,0.0722656,0.0336914,0.1132812
			c0,0.0458984-0.0146484,0.0820312-0.0385742,0.1181641c-0.1645508,0.2373047-0.3432617,0.4648438-0.5078125,0.7070312
			c0.0820312,0.1650391,0.1499023,0.3349609,0.1982422,0.5048828l0.8852539,0.1445312
			c0.0820312,0.015625,0.1401367,0.0986328,0.1401367,0.1855469V137.0322266z M90.2148438,135.1289062
			c-0.6821289,0-1.2382812,0.5927734-1.2382812,1.3203125s0.5561523,1.3203125,1.2382812,1.3203125
			s1.2382812-0.5927734,1.2382812-1.3203125S90.8969727,135.1289062,90.2148438,135.1289062z"/>
	</g>
</g>
<g id="SuppressLiterals">
	<line fill="none" stroke="#E3ECEE" stroke-miterlimit="10" x1="97" y1="130.5" x2="111" y2="130.5"/>
	<line fill="none" stroke="#E3ECEE" stroke-miterlimit="10" x1="97" y1="142.5" x2="111" y2="142.5"/>
	<line fill="none" stroke="#E3ECEE" stroke-miterlimit="10" x1="97.9995117" y1="132" x2="100.9995117" y2="135"/>
	<line fill="none" stroke="#E3ECEE" stroke-miterlimit="10" x1="97.9995117" y1="135" x2="100.9995117" y2="132"/>
	
		<rect x="103.3786774" y="134.3786774" transform="matrix(-0.7071068 0.7071068 -0.7071068 -0.7071068 276.6198425 158.4203186)" fill="none" stroke="#E3ECEE" stroke-miterlimit="10" width="4.2426405" height="4.2426405"/>
</g>
<g id="SuppressReceptions">
	<line fill="none" stroke="#E3ECEE" stroke-miterlimit="10" x1="113" y1="130.5" x2="127" y2="130.5"/>
	<line fill="none" stroke="#E3ECEE" stroke-miterlimit="10" x1="113" y1="142.5" x2="127" y2="142.5"/>
	<line fill="none" stroke="#E3ECEE" stroke-miterlimit="10" x1="114" y1="132" x2="117" y2="135"/>
	<line fill="none" stroke="#E3ECEE" stroke-miterlimit="10" x1="114" y1="135" x2="117" y2="132"/>
	<polyline fill="none" stroke="#E3ECEE" stroke-miterlimit="10" points="118,136.5 120.5,136.5 120.5,134.5 122.5,134.5 
		122.5,138.5 124.5,138.5 124.5,136.5 127,136.5 	"/>
	<circle fill="none" stroke="#E3ECEE" stroke-miterlimit="10" cx="122.5" cy="136.5" r="4"/>
</g>
<g id="WordWrap">
	<line fill="none" stroke="#E3ECEE" stroke-miterlimit="10" x1="2" y1="115.5" x2="14" y2="115.5"/>
	<line fill="none" stroke="#E3ECEE" stroke-miterlimit="10" x1="2" y1="118.5" x2="11" y2="118.5"/>
	<line fill="none" stroke="#E3ECEE" stroke-miterlimit="10" x1="2" y1="121.5" x2="8" y2="121.5"/>
	<polygon fill="#E3ECEE" stroke="#E3ECEE" stroke-miterlimit="10" points="10.5,121.5 8.5,123.5 10.5,125.5 	"/>
	<polyline fill="none" stroke="#E3ECEE" stroke-miterlimit="10" points="13.5,118 13.5,123.5 10.5,123.5 	"/>
</g>
<g id="Show_Shadow">
	<rect x="26" y="118" opacity="0.7" fill="#E3ECEE" width="3" height="5"/>
	<rect x="18.5" y="115.5" fill="none" stroke="#E3ECEE" stroke-miterlimit="10" width="7" height="7"/>
	<rect x="21" y="123" opacity="0.7" fill="#E3ECEE" width="8" height="3"/>
</g>
<g id="Show_Visibility">
	<polyline fill="none" stroke="#E3ECEE" stroke-miterlimit="10" points="37,115.5 34.5,115.5 34.5,125.5 37,125.5 	"/>
	<polyline fill="none" stroke="#E3ECEE" stroke-miterlimit="10" points="44,115.5 46.5,115.5 46.5,125.5 44,125.5 	"/>
	<g>
		<line fill="none" stroke="#E3ECEE" stroke-miterlimit="10" x1="39.5" y1="121" x2="39.5" y2="126"/>
		<line fill="none" stroke="#E3ECEE" stroke-miterlimit="10" x1="41.5" y1="121" x2="41.5" y2="126"/>
		<line fill="none" stroke="#E3ECEE" stroke-miterlimit="10" x1="38" y1="124.5" x2="43" y2="124.5"/>
		<line fill="none" stroke="#E3ECEE" stroke-miterlimit="10" x1="38" y1="122.5" x2="43" y2="122.5"/>
	</g>
	<g>
		<line fill="none" stroke="#E3ECEE" stroke-miterlimit="10" x1="40.5" y1="115" x2="40.5" y2="120"/>
		<line fill="none" stroke="#E3ECEE" stroke-miterlimit="10" x1="38" y1="117.5" x2="43" y2="117.5"/>
	</g>
</g>
<g id="Show_Namespace">
	<polyline fill="none" stroke="#E3ECEE" stroke-miterlimit="10" points="53,115.5 50.5,115.5 50.5,125.5 53,125.5 	"/>
	<polyline fill="none" stroke="#E3ECEE" stroke-miterlimit="10" points="60,115.5 62.5,115.5 62.5,125.5 60,125.5 	"/>
	<rect x="53.5" y="117.5" fill="none" stroke="#E3ECEE" stroke-miterlimit="10" width="3" height="2"/>
	<rect x="53.5" y="119.5" fill="none" stroke="#E3ECEE" stroke-miterlimit="10" width="6" height="4"/>
</g>
<g id="Show_Property">
	<polyline fill="none" stroke="#E3ECEE" stroke-miterlimit="10" points="69,115.5 66.5,115.5 66.5,125.5 69,125.5 	"/>
	<polyline fill="none" stroke="#E3ECEE" stroke-miterlimit="10" points="76,115.5 78.5,115.5 78.5,125.5 76,125.5 	"/>
	<g>
		<path fill="#E3ECEE" d="M69.1083984,120.1796875c0.2504883-0.0078125,0.4550781-0.0742188,0.612793-0.203125
			s0.2626953-0.3046875,0.3149414-0.5292969s0.0795898-0.609375,0.0830078-1.1523438
			c0.003418-0.5449219,0.0131836-0.9023438,0.0292969-1.0742188c0.0292969-0.2734375,0.0839844-0.4941406,0.1635742-0.6601562
			s0.1782227-0.2988281,0.2954102-0.3964844c0.1171875-0.0996094,0.2670898-0.1757812,0.4492188-0.2285156
			c0.1235352-0.03125,0.3256836-0.0488281,0.6054688-0.0488281h0.2734375v0.7675781h-0.1513672
			c-0.3383789,0-0.5629883,0.0605469-0.6738281,0.1835938c-0.1108398,0.1210938-0.1660156,0.3945312-0.1660156,0.8164062
			c0,0.8535156-0.0180664,1.3925781-0.0537109,1.6171875c-0.0585938,0.3476562-0.1586914,0.6171875-0.300293,0.8046875
			c-0.1416016,0.1894531-0.3637695,0.3574219-0.6665039,0.5039062c0.3579102,0.1484375,0.6176758,0.3789062,0.7788086,0.6855469
			c0.1611328,0.3085938,0.2416992,0.8105469,0.2416992,1.5117188c0,0.6347656,0.0063477,1.0117188,0.0195312,1.1328125
			c0.0258789,0.2207031,0.0917969,0.375,0.1977539,0.4628906s0.3134766,0.1328125,0.6225586,0.1328125h0.1513672v0.765625
			h-0.2734375c-0.3188477,0-0.550293-0.0253906-0.6933594-0.078125c-0.2084961-0.0742188-0.3808594-0.1953125-0.5175781-0.3632812
			s-0.2255859-0.3808594-0.2661133-0.6367188c-0.0405273-0.2578125-0.0625-0.6796875-0.065918-1.265625
			s-0.0307617-0.9902344-0.0830078-1.2148438s-0.1572266-0.4023438-0.3149414-0.5332031
			c-0.1577148-0.1289062-0.3623047-0.1972656-0.612793-0.2050781V120.1796875z"/>
	</g>
	<g>
		<path fill="#E3ECEE" d="M75.8867188,120.1796875v0.7949219c-0.2504883,0.0078125-0.4550781,0.0761719-0.612793,0.2050781
			c-0.1577148,0.1308594-0.2626953,0.3066406-0.3149414,0.53125c-0.0522461,0.2226562-0.0795898,0.6054688-0.0830078,1.1484375
			c-0.003418,0.5449219-0.0131836,0.9023438-0.0292969,1.0742188c-0.0292969,0.2773438-0.0839844,0.4980469-0.1635742,0.6621094
			s-0.1782227,0.296875-0.2954102,0.3964844c-0.1171875,0.0976562-0.2670898,0.1738281-0.4492188,0.2265625
			c-0.1235352,0.0351562-0.3256836,0.0527344-0.6054688,0.0527344h-0.2734375v-0.765625h0.1513672
			c0.3383789,0,0.5629883-0.0605469,0.6738281-0.1835938c0.1108398-0.1210938,0.1660156-0.3964844,0.1660156-0.8222656
			c0-0.8144531,0.0146484-1.3300781,0.0439453-1.5488281c0.0522461-0.3613281,0.15625-0.6503906,0.3125-0.8652344
			c0.15625-0.2167969,0.3774414-0.3867188,0.6640625-0.5058594c-0.3745117-0.1796875-0.6381836-0.4160156-0.7910156-0.7109375
			s-0.2294922-0.7910156-0.2294922-1.4921875c0-0.6347656-0.0083008-1.0136719-0.0244141-1.1367188
			c-0.0229492-0.21875-0.0869141-0.3710938-0.1928711-0.4570312s-0.3134766-0.1289062-0.6225586-0.1289062h-0.1513672v-0.7675781
			h0.2734375c0.3188477,0,0.550293,0.0263672,0.6933594,0.078125c0.2084961,0.0722656,0.3808594,0.1923828,0.5175781,0.3613281
			c0.1367188,0.1699219,0.2255859,0.3828125,0.2661133,0.640625c0.0405273,0.2558594,0.0625,0.6777344,0.065918,1.2636719
			s0.0307617,0.9902344,0.0830078,1.2148438c0.0522461,0.2226562,0.1572266,0.3984375,0.3149414,0.5292969
			C75.4316406,120.1035156,75.6362305,120.171875,75.8867188,120.1796875z"/>
	</g>
</g>
<g id="Show_Type">
	<polyline fill="none" stroke="#E3ECEE" stroke-miterlimit="10" points="85,115.5 82.5,115.5 82.5,125.5 85,125.5 	"/>
	<polyline fill="none" stroke="#E3ECEE" stroke-miterlimit="10" points="92,115.5 94.5,115.5 94.5,125.5 92,125.5 	"/>
	<circle fill="#E3ECEE" stroke="#E3ECEE" stroke-width="0.5" stroke-miterlimit="10" cx="85.5" cy="118.5" r="0.5"/>
	<circle fill="#E3ECEE" stroke="#E3ECEE" stroke-width="0.5" stroke-miterlimit="10" cx="85.5" cy="122.5" r="0.5"/>
	<line fill="none" stroke="#E3ECEE" stroke-miterlimit="10" x1="87" y1="117.5" x2="92" y2="117.5"/>
	<line fill="none" stroke="#E3ECEE" stroke-miterlimit="10" x1="89.5004883" y1="118" x2="89.5004883" y2="124"/>
</g>
<g id="Rectilinear">
	<rect x="113.5" y="155.5" fill="none" stroke="#E3ECEE" stroke-miterlimit="10" width="3" height="3"/>
	<rect x="123.5" y="145.5" fill="none" stroke="#E3ECEE" stroke-miterlimit="10" width="2.96875" height="3"/>
	<line fill="none" stroke="#E3ECEE" stroke-miterlimit="10" x1="117" y1="156.5" x2="125" y2="156.5"/>
	<line fill="none" stroke="#E3ECEE" stroke-miterlimit="10" x1="124.5" y1="149" x2="124.5" y2="156"/>
</g>
<g id="Oblique">
	<rect x="129.5" y="155.5" fill="none" stroke="#E3ECEE" stroke-miterlimit="10" width="3" height="3"/>
	<rect x="139.53125" y="145.5" fill="none" stroke="#E3ECEE" stroke-miterlimit="10" width="2.96875" height="3"/>
	<line fill="none" stroke="#E3ECEE" stroke-miterlimit="10" x1="140.5" y1="148.5" x2="131.5" y2="155.5"/>
</g>
<g id="Rounded_Rectilinear">
	<rect x="145.5" y="155.5" fill="none" stroke="#E3ECEE" stroke-miterlimit="10" width="3" height="3"/>
	<rect x="155.53125" y="145.5" fill="none" stroke="#E3ECEE" stroke-miterlimit="10" width="2.96875" height="3"/>
	<path fill="none" stroke="#E3ECEE" stroke-linejoin="round" stroke-miterlimit="10" d="M156.5,153c0,1.9345703-1.7890625,3.5-4,3.5
		"/>
	<line fill="none" stroke="#E3ECEE" stroke-linejoin="round" stroke-miterlimit="10" x1="149" y1="156.5" x2="152.5" y2="156.5"/>
	<line fill="none" stroke="#E3ECEE" stroke-linejoin="round" stroke-miterlimit="10" x1="156.5" y1="153" x2="156.5" y2="149"/>
</g>
<g id="Curve">
	<rect x="161.5" y="155.5" fill="none" stroke="#E3ECEE" stroke-miterlimit="10" width="3" height="3"/>
	<rect x="171.53125" y="145.5" fill="none" stroke="#E3ECEE" stroke-miterlimit="10" width="2.96875" height="3"/>
	<path fill="none" stroke="#E3ECEE" stroke-linecap="round" stroke-linejoin="round" stroke-miterlimit="10" d="M172.6074219,148.5
		c0,0,2.7587891,0.5839844,0,3.5s-6.8974609-2.9160156-9.1962891,0c-2.2998047,2.9160156,0,3.5,0,3.5"/>
</g>
<g id="Zero-Many">
	<circle fill="none" stroke="#E3ECEE" stroke-miterlimit="10" cx="166.5" cy="119.5" r="3"/>
	<line fill="none" stroke="#E3ECEE" stroke-miterlimit="10" x1="175" y1="119.5" x2="169" y2="119.5"/>
	<line fill="none" stroke="#E3ECEE" stroke-miterlimit="10" x1="169.5" y1="119.5" x2="175" y2="116"/>
	<line fill="none" stroke="#E3ECEE" stroke-miterlimit="10" x1="169.5" y1="119.5" x2="175" y2="123"/>
	<line fill="none" stroke="#E3ECEE" stroke-miterlimit="10" x1="164" y1="119.5" x2="162" y2="119.5"/>
</g>
<g id="Many">
	<line fill="none" stroke="#E3ECEE" stroke-miterlimit="10" x1="178" y1="119.5" x2="191" y2="119.5"/>
	<line fill="none" stroke="#E3ECEE" stroke-miterlimit="10" x1="185.5" y1="119.5" x2="191" y2="116"/>
	<line fill="none" stroke="#E3ECEE" stroke-miterlimit="10" x1="185.5" y1="119.5" x2="191" y2="123"/>
</g>
<g id="One">
	<line fill="none" stroke="#E3ECEE" stroke-miterlimit="10" x1="194" y1="119.5" x2="207" y2="119.5"/>
	<line fill="none" stroke="#E3ECEE" stroke-miterlimit="10" x1="203.5" y1="116" x2="203.5" y2="123"/>
</g>
<g id="Zero-One">
	<line fill="none" stroke="#E3ECEE" stroke-miterlimit="10" x1="219.5" y1="116" x2="219.5" y2="123"/>
	<circle fill="none" stroke="#E3ECEE" stroke-miterlimit="10" cx="214.5" cy="119.5" r="3"/>
	<line fill="none" stroke="#E3ECEE" stroke-miterlimit="10" x1="223" y1="119.5" x2="217" y2="119.5"/>
	<line fill="none" stroke="#E3ECEE" stroke-miterlimit="10" x1="212" y1="119.5" x2="210" y2="119.5"/>
</g>
<g id="Identifying">
	<line fill="none" stroke="#E3ECEE" stroke-miterlimit="10" x1="139.5" y1="126" x2="139.5" y2="115"/>
	<line fill="none" stroke="#E3ECEE" stroke-miterlimit="10" x1="140" y1="115.5" x2="130" y2="115.5"/>
	<line fill="none" stroke="#E3ECEE" stroke-miterlimit="10" x1="132.5" y1="113" x2="132.5" y2="118"/>
	<line fill="none" stroke="#E3ECEE" stroke-miterlimit="10" x1="137" y1="123.5" x2="142" y2="123.5"/>
</g>
<g id="Non-Identifying">
	<line fill="none" stroke="#E3ECEE" stroke-miterlimit="10" x1="148.5" y1="113" x2="148.5" y2="118"/>
	<line fill="none" stroke="#E3ECEE" stroke-miterlimit="10" x1="153" y1="123.5" x2="158" y2="123.5"/>
	<g>
		<g>
			<line fill="none" stroke="#E3ECEE" stroke-miterlimit="10" x1="146" y1="115.5" x2="146.5" y2="115.5"/>
			
				<line fill="none" stroke="#E3ECEE" stroke-miterlimit="10" stroke-dasharray="0.944444,0.944444" x1="147.4443359" y1="115.5" x2="154.5273438" y2="115.5"/>
			<polyline fill="none" stroke="#E3ECEE" stroke-miterlimit="10" points="155,115.5 155.5,115.5 155.5,116 			"/>
			
				<line fill="none" stroke="#E3ECEE" stroke-miterlimit="10" stroke-dasharray="1.05556,1.05556" x1="155.5" y1="117.0556641" x2="155.5" y2="124.9726562"/>
			<line fill="none" stroke="#E3ECEE" stroke-miterlimit="10" x1="155.5" y1="125.5" x2="155.5" y2="126"/>
		</g>
	</g>
</g>
<g id="Column">
	<g>
		<g>
			<polyline fill="none" stroke="#E3ECEE" stroke-miterlimit="10" points="174.5,140 174.5,140.5 174,140.5 			"/>
			<line fill="none" stroke="#E3ECEE" stroke-miterlimit="10" stroke-dasharray="1,1" x1="173" y1="140.5" x2="163" y2="140.5"/>
			<polyline fill="none" stroke="#E3ECEE" stroke-miterlimit="10" points="163,140.5 162.5,140.5 162.5,140 			"/>
			<line fill="none" stroke="#E3ECEE" stroke-miterlimit="10" stroke-dasharray="1,1" x1="162.5" y1="139" x2="162.5" y2="134"/>
			<polyline fill="none" stroke="#E3ECEE" stroke-miterlimit="10" points="162.5,133 162.5,132.5 163,132.5 			"/>
			<line fill="none" stroke="#E3ECEE" stroke-miterlimit="10" stroke-dasharray="1,1" x1="164" y1="132.5" x2="173" y2="132.5"/>
			<polyline fill="none" stroke="#E3ECEE" stroke-miterlimit="10" points="174,132.5 174.5,132.5 174.5,133 			"/>
			<line fill="none" stroke="#E3ECEE" stroke-miterlimit="10" stroke-dasharray="1,1" x1="174.5" y1="134" x2="174.5" y2="140"/>
		</g>
	</g>
	<rect x="166.5" y="132.5" fill="none" stroke="#E3ECEE" stroke-miterlimit="10" width="4" height="8"/>
</g>
<g id="Column-Key">
	<ellipse fill="none" stroke="#E3ECEE" stroke-miterlimit="10" cx="136.5" cy="133.75" rx="3" ry="2.25"/>
	<polygon fill="none" stroke="#E3ECEE" stroke-miterlimit="10" points="135.5,136 135.5,139.5 136.5,140.5 137.5,139.5 137.5,136 	
		"/>
	<line fill="none" stroke="#E3ECEE" stroke-miterlimit="10" x1="139.5" y1="138.5" x2="138" y2="138.5"/>
	<line fill="none" stroke="#E3ECEE" stroke-miterlimit="10" x1="136" y1="133.75" x2="137" y2="133.75"/>
</g>
<g id="Column-Non-Key">
	<rect x="149.5" y="132.5" fill="none" stroke="#E3ECEE" stroke-miterlimit="10" width="4" height="8"/>
</g>
<g id="Add_Super-Class">
	<polygon fill="none" stroke="#E3ECEE" stroke-miterlimit="10" points="213.5,106.5 216.5,103.5 219.5,106.5 	"/>
	<rect x="212.5" y="98.5" fill="none" stroke="#E3ECEE" stroke-miterlimit="10" width="8" height="4"/>
	<line fill="none" stroke="#E3ECEE" stroke-miterlimit="10" x1="216.5" y1="107" x2="216.5" y2="111"/>
</g>
<g id="Add_Sub-Class">
	<polygon fill="none" stroke="#E3ECEE" stroke-miterlimit="10" points="197.5,101.5 200.5,98.5 203.5,101.5 	"/>
	<rect x="196.5" y="105.5" fill="none" stroke="#E3ECEE" stroke-miterlimit="10" width="8" height="4"/>
	<line fill="none" stroke="#E3ECEE" stroke-miterlimit="10" x1="200.5" y1="102" x2="200.5" y2="106"/>
</g>
<g id="Add_Super-Stereotype">
	<polygon fill="none" stroke="#E3ECEE" stroke-miterlimit="10" points="21.5,106.5 24.5,103.5 27.5,106.5 	"/>
	<line fill="none" stroke="#E3ECEE" stroke-miterlimit="10" x1="24.5" y1="107" x2="24.5" y2="111"/>
	<g>
		<path fill="#E3ECEE" d="M19.9765625,99.828125L21.4941406,102.5h-0.8554688l-1.8691406-2.671875l1.8691406-2.671875h0.8671875
			L19.9765625,99.828125z M22.2441406,99.828125L23.7910156,102.5h-0.890625l-1.8339844-2.671875l1.8339844-2.671875h0.890625
			L22.2441406,99.828125z"/>
		<path fill="#E3ECEE" d="M27.0253906,99.828125l-1.546875-2.671875h0.8847656l1.8398438,2.671875L26.3632812,102.5h-0.8847656
			L27.0253906,99.828125z M29.2929688,99.828125l-1.5292969-2.671875h0.8671875L30.5,99.828125L28.6308594,102.5h-0.8613281
			L29.2929688,99.828125z"/>
	</g>
</g>
<g id="Add_Sub-Stereotype">
	<polygon fill="none" stroke="#E3ECEE" stroke-miterlimit="10" points="5.5,101.5 8.5,98.5 11.5,101.5 	"/>
	<line fill="none" stroke="#E3ECEE" stroke-miterlimit="10" x1="8.5" y1="102" x2="8.5" y2="106"/>
	<g>
		<path fill="#E3ECEE" d="M3.9765625,108.671875l1.5175781,2.671875H4.6386719l-1.8691406-2.671875L4.6386719,106h0.8671875
			L3.9765625,108.671875z M6.2441406,108.671875l1.546875,2.671875h-0.890625l-1.8339844-2.671875L6.9003906,106h0.890625
			L6.2441406,108.671875z"/>
		<path fill="#E3ECEE" d="M11.0253906,108.671875L9.4785156,106h0.8847656l1.8398438,2.671875l-1.8398438,2.671875H9.4785156
			L11.0253906,108.671875z M13.2929688,108.671875L11.7636719,106h0.8671875L14.5,108.671875l-1.8691406,2.671875h-0.8613281
			L13.2929688,108.671875z"/>
	</g>
</g>
<g id="Add_Realizing_Class">
	<rect x="180.5" y="89.5" fill="none" stroke="#E3ECEE" stroke-miterlimit="10" width="8" height="4"/>
	<line fill="none" stroke="#E3ECEE" stroke-miterlimit="10" x1="184.5" y1="86" x2="184.5" y2="90"/>
	<circle fill="none" stroke="#E3ECEE" stroke-miterlimit="10" cx="184.5" cy="84.5" r="2"/>
</g>
<g id="Add_Super-Interface">
	<polygon fill="none" stroke="#E3ECEE" stroke-miterlimit="10" points="213.5,90.5 216.5,87.5 219.5,90.5 	"/>
	<line fill="none" stroke="#E3ECEE" stroke-miterlimit="10" x1="216.5" y1="91" x2="216.5" y2="95"/>
	<circle fill="none" stroke="#E3ECEE" stroke-miterlimit="10" cx="216.5" cy="84.5" r="2"/>
</g>
<g id="Add_Sub-Interface">
	<polygon fill="none" stroke="#E3ECEE" stroke-miterlimit="10" points="197.5,85.5 200.5,82.5 203.5,85.5 	"/>
	<line fill="none" stroke="#E3ECEE" stroke-miterlimit="10" x1="200.5" y1="86" x2="200.5" y2="90"/>
	<circle fill="none" stroke="#E3ECEE" stroke-miterlimit="10" cx="200.5" cy="91.5" r="2"/>
</g>
<g id="Add_Aggregation">
	
		<rect x="163.2322388" y="98.7322311" transform="matrix(-0.7071068 0.7071068 -0.7071068 -0.7071068 352.7368469 54.8916168)" fill="none" stroke="#E3ECEE" stroke-miterlimit="10" width="3.5355339" height="3.5355339"/>
	<rect x="166.5" y="106.5" fill="none" stroke="#E3ECEE" stroke-miterlimit="10" width="8" height="4"/>
	<polyline fill="none" stroke="#E3ECEE" stroke-miterlimit="10" points="167.5,100.5 170.5,100.5 170.5,106 	"/>
</g>
<g id="Add_Composition">
	
		<rect x="179.2322388" y="98.7322311" transform="matrix(-0.7071068 0.7071068 -0.7071068 -0.7071068 380.0505676 43.5779037)" fill="#E3ECEE" stroke="#E3ECEE" stroke-miterlimit="10" width="3.5355339" height="3.5355339"/>
	<rect x="182.5" y="106.5" fill="none" stroke="#E3ECEE" stroke-miterlimit="10" width="8" height="4"/>
	<polyline fill="none" stroke="#E3ECEE" stroke-miterlimit="10" points="183.5,100.5 186.5,100.5 186.5,106 	"/>
</g>
<g id="Add_Association">
	<rect x="118.5" y="105.5" fill="none" stroke="#E3ECEE" stroke-miterlimit="10" width="8" height="5"/>
	<polyline fill="none" stroke="#E3ECEE" stroke-miterlimit="10" points="114,99.5 122.5,99.5 122.5,105 	"/>
	<polygon fill="none" stroke="#E3ECEE" stroke-miterlimit="10" points="106.5,103.5 109.5,106.5 109.5,109.5 99.5,109.5 99.5,103.5 
			"/>
	<polyline fill="none" stroke="#E3ECEE" stroke-miterlimit="10" points="106.5,103.5 106.5,106.5 109.5,106.5 	"/>
	<polyline fill="none" stroke="#E3ECEE" stroke-miterlimit="10" stroke-dasharray="1,1" points="104.5,103 104.5,98.5 98,98.5 	"/>
</g>
<g id="Add_Linked_Object">
	<rect x="102.5" y="121.5" fill="none" stroke="#E3ECEE" stroke-miterlimit="10" width="8" height="5"/>
	<polyline fill="none" stroke="#E3ECEE" stroke-miterlimit="10" points="106.5,121 106.5,115.5 98,115.5 	"/>
	<line fill="none" stroke="#E3ECEE" stroke-miterlimit="10" x1="104" y1="124.5" x2="109" y2="124.5"/>
</g>
<g id="Add_Interface">
	<circle fill="none" stroke="#E3ECEE" stroke-miterlimit="10" cx="138.5" cy="103.5" r="3"/>
	<line fill="none" stroke="#E3ECEE" stroke-miterlimit="10" x1="130" y1="103.5" x2="135.5" y2="103.5"/>
</g>
<g id="Add_Required_Interface">
	<line fill="none" stroke="#E3ECEE" stroke-miterlimit="10" x1="83" y1="103.5" x2="90.5" y2="103.5"/>
	<path fill="none" stroke="#E3ECEE" stroke-miterlimit="10" d="M90.5,103.5c0,1.6582031,1.3417969,3,3,3"/>
	<path fill="none" stroke="#E3ECEE" stroke-miterlimit="10" d="M90.5,103.5c0-1.6582031,1.3417969-3,3-3"/>
</g>
<g id="Add_Port">
	<rect x="149.5" y="100.5" fill="none" stroke="#E3ECEE" stroke-miterlimit="10" width="6" height="6"/>
	<polyline fill="none" stroke="#E3ECEE" stroke-miterlimit="10" points="152.5,100 152.5,97.5 145,97.5 	"/>
	<polyline fill="none" stroke="#E3ECEE" stroke-miterlimit="10" points="152.5,107 152.5,109.5 145,109.5 	"/>
</g>
<g id="Add_Note">
</g>
<g id="Add_Sub-Package">
	<rect x="163.5" y="90.5" fill="none" stroke="#E3ECEE" stroke-miterlimit="10" width="10" height="4"/>
	<line fill="none" stroke="#E3ECEE" stroke-miterlimit="10" x1="168.5" y1="81.5" x2="168.5" y2="88"/>
	<circle fill="none" stroke="#E3ECEE" stroke-miterlimit="10" cx="168.5" cy="83.5" r="2"/>
	<line fill="none" stroke="#E3ECEE" stroke-miterlimit="10" x1="166.5" y1="83.5" x2="170.5" y2="83.5"/>
	<polyline fill="none" stroke="#E3ECEE" stroke-miterlimit="10" points="163.5,90 163.5,88.5 169.5,88.5 169.5,90 	"/>
</g>
<g id="Add_Dependant_Package">
	<rect x="147.5" y="90.5" fill="none" stroke="#E3ECEE" stroke-miterlimit="10" width="10" height="4"/>
	<polyline fill="none" stroke="#E3ECEE" stroke-miterlimit="10" points="147.5,90 147.5,88.5 153.5,88.5 153.5,90 	"/>
	<polyline fill="none" stroke="#E3ECEE" stroke-miterlimit="10" stroke-dasharray="1,1" points="152.5,88 152.5,83.5 146.5,83.5 	
		"/>
	<polyline fill="none" stroke="#E3ECEE" stroke-miterlimit="10" points="148.5,85.4995117 146.5,83.4995117 148.5,81.4995117 	"/>
</g>
<g id="Add_Depending_Package">
	<rect x="131.5" y="83.5" fill="none" stroke="#E3ECEE" stroke-miterlimit="10" width="10" height="4"/>
	<polyline fill="none" stroke="#E3ECEE" stroke-miterlimit="10" points="131.5,83 131.5,81.5 137.5,81.5 137.5,83 	"/>
	<polyline fill="none" stroke="#E3ECEE" stroke-miterlimit="10" stroke-dasharray="1,1" points="130,94.5004883 136.5,94.5004883 
		136.5,90 	"/>
	<polyline fill="none" stroke="#E3ECEE" stroke-miterlimit="10" points="134.5,90.5004883 136.5,88.5004883 138.5,90.5004883 	"/>
</g>
<g id="Add_Connected_Part">
	<rect x="66.5" y="98.5" opacity="0.5" fill="none" stroke="#E3ECEE" stroke-miterlimit="10" width="11" height="12"/>
	<rect x="68" y="106" opacity="0.5" fill="none" stroke="#E3ECEE" stroke-miterlimit="10" width="4" height="3"/>
	<rect x="71.5" y="100.5" fill="none" stroke="#E3ECEE" stroke-miterlimit="10" width="4" height="3"/>
	<polyline fill="none" stroke="#E3ECEE" stroke-miterlimit="10" points="72.5,108 74,108 74,104 	"/>
</g>
<g id="Add_Communicating_Node">
	<g>
		<polygon fill="none" stroke="#E3ECEE" stroke-miterlimit="10" points="116.5,89.5 116.5,94.5 122.5,94.5 125.5,91.5 125.5,86.5 
			119.5,86.5 		"/>
		<polyline fill="none" stroke="#E3ECEE" stroke-miterlimit="10" points="116.5,89.5 122.5,89.5 122.5,94.5 		"/>
		<line fill="none" stroke="#E3ECEE" stroke-miterlimit="10" x1="122.5" y1="89.5" x2="125.5" y2="86.5"/>
	</g>
	<polyline fill="none" stroke="#E3ECEE" stroke-miterlimit="10" points="122.5,86 122.5,82.5 114,82.5 	"/>
</g>
<g id="Add_Deployed_Artifact">
	<polyline fill="none" stroke="#E3ECEE" stroke-miterlimit="10" stroke-dasharray="1,1" points="106.5,86 106.5,83.5 100,83.5 	"/>
	<polyline fill="none" stroke="#E3ECEE" stroke-miterlimit="10" points="100.5,85.5 98.5,83.5 100.5,81.5 	"/>
</g>
<g id="Add_Deployed_Component">
	<polyline fill="none" stroke="#E3ECEE" stroke-miterlimit="10" stroke-dasharray="1,1" points="90.5,86 90.5,83.5 84,83.5 	"/>
	<polyline fill="none" stroke="#E3ECEE" stroke-miterlimit="10" points="84.5,85.5 82.5,83.5 84.5,81.5 	"/>
	<rect x="84.5" y="88.5" fill="none" stroke="#E3ECEE" stroke-miterlimit="10" width="4" height="2"/>
	<rect x="84.5" y="90.5" fill="none" stroke="#E3ECEE" stroke-miterlimit="10" width="4" height="2"/>
	<polyline fill="none" stroke="#E3ECEE" stroke-miterlimit="10" points="86.5,88 86.5,86.5 94.5,86.5 94.5,94.5 86.5,94.5 86.5,93 	
		"/>
	<polyline fill="none" stroke="#E3ECEE" stroke-miterlimit="10" points="107.5,86.5 107.5,89.5 110.5,89.5 	"/>
	<polygon fill="none" stroke="#E3ECEE" stroke-miterlimit="10" points="107.4995117,86.5 110.4995117,89.5 110.5,94.5 102.5,94.5 
		102.5,86.5 	"/>
</g>
<g id="Add_Use_Case">
	<ellipse fill="none" stroke="#E3ECEE" stroke-miterlimit="10" cx="73.9995117" cy="91" rx="4.5" ry="2.5004883"/>
	<line fill="none" stroke="#E3ECEE" stroke-miterlimit="10" x1="73.4995117" y1="88.5" x2="65.4995117" y2="83.5"/>
</g>
<g id="Add_Super-Actor">
	<ellipse fill="none" stroke="#E3ECEE" stroke-miterlimit="10" cx="52.5" cy="84" rx="2" ry="1.5"/>
	<polyline fill="none" stroke="#E3ECEE" stroke-miterlimit="10" points="50.5,92.5 52.5,89.5 54.5,92.5 	"/>
	<line fill="none" stroke="#E3ECEE" stroke-miterlimit="10" x1="52.5" y1="85.5" x2="52.5" y2="89.5"/>
	<line fill="none" stroke="#E3ECEE" stroke-miterlimit="10" x1="50" y1="87.5" x2="55" y2="87.5"/>
	<polygon fill="none" stroke="#E3ECEE" stroke-miterlimit="10" points="56.5,86.5 59.5,84.5 59.5,88.5 	"/>
	<polyline fill="none" stroke="#E3ECEE" stroke-miterlimit="10" points="60,86.5 62.5,86.5 62.5,94 	"/>
</g>
<g id="Add_Sub-Actor">
	<ellipse fill="none" stroke="#E3ECEE" stroke-miterlimit="10" cx="36.5" cy="86" rx="2" ry="1.5"/>
	<polyline fill="none" stroke="#E3ECEE" stroke-miterlimit="10" points="34.5,94.5 36.5,91.5 38.5,94.5 	"/>
	<line fill="none" stroke="#E3ECEE" stroke-miterlimit="10" x1="36.5" y1="87.5" x2="36.5" y2="91.5"/>
	<line fill="none" stroke="#E3ECEE" stroke-miterlimit="10" x1="34" y1="89.5" x2="39" y2="89.5"/>
	<polygon fill="none" stroke="#E3ECEE" stroke-miterlimit="10" points="41.5,85.5 43.5,82.5 45.5,85.5 	"/>
	<polyline fill="none" stroke="#E3ECEE" stroke-miterlimit="10" points="43.4995117,86 43.4995117,90.5 39.9995117,90.5 	"/>
</g>
<g id="Add_Associated_Actor">
	<ellipse fill="none" stroke="#E3ECEE" stroke-miterlimit="10" cx="36.5" cy="70" rx="2" ry="1.5"/>
	<polyline fill="none" stroke="#E3ECEE" stroke-miterlimit="10" points="34.5,78.5 36.5,75.5 38.5,78.5 	"/>
	<line fill="none" stroke="#E3ECEE" stroke-miterlimit="10" x1="36.5" y1="71.5" x2="36.5" y2="75.5"/>
	<line fill="none" stroke="#E3ECEE" stroke-miterlimit="10" x1="34" y1="73.5" x2="39" y2="73.5"/>
	<line fill="none" stroke="#E3ECEE" stroke-miterlimit="10" x1="39.5" y1="75.5" x2="46" y2="68.5"/>
</g>
<g id="Add_Included_UseCase">
	<ellipse fill="none" stroke="#E3ECEE" stroke-miterlimit="10" cx="58" cy="76.0004883" rx="4.5" ry="2.5004883"/>
	<line fill="none" stroke="#E3ECEE" stroke-miterlimit="10" stroke-dasharray="1,1" x1="57.5" y1="73.5" x2="49.5" y2="65.5"/>
	<path fill="none" stroke="#E3ECEE" stroke-miterlimit="10" stroke-dasharray="1,1" d="M54.5,73.5"/>
	<polyline fill="none" stroke="#E3ECEE" stroke-miterlimit="10" points="53,72.5 57.5,73.5 56.5,69 	"/>
	<line fill="none" stroke="#E3ECEE" stroke-miterlimit="10" x1="62" y1="65.5" x2="59" y2="65.5"/>
	<line fill="none" stroke="#E3ECEE" stroke-miterlimit="10" x1="59" y1="69.5" x2="62" y2="69.5"/>
	<line fill="none" stroke="#E3ECEE" stroke-miterlimit="10" x1="60.5" y1="65.5" x2="60.5" y2="69.5"/>
</g>
<g id="Add_Extended_UseCase">
	<ellipse fill="none" stroke="#E3ECEE" stroke-miterlimit="10" cx="74" cy="76.0004883" rx="4.5" ry="2.5004883"/>
	<line fill="none" stroke="#E3ECEE" stroke-miterlimit="10" stroke-dasharray="1,1" x1="73.5" y1="73.5" x2="65.5" y2="65.5"/>
	<path fill="none" stroke="#E3ECEE" stroke-miterlimit="10" stroke-dasharray="1,1" d="M70.5,73.5"/>
	<polyline fill="none" stroke="#E3ECEE" stroke-miterlimit="10" points="69,72.5 73.5,73.5 72.5,69 	"/>
	<line fill="none" stroke="#E3ECEE" stroke-miterlimit="10" x1="78" y1="65.5" x2="74" y2="65.5"/>
	<line fill="none" stroke="#E3ECEE" stroke-miterlimit="10" x1="78" y1="67.5" x2="74" y2="67.5"/>
	<line fill="none" stroke="#E3ECEE" stroke-miterlimit="10" x1="74" y1="69.5" x2="78" y2="69.5"/>
	<line fill="none" stroke="#E3ECEE" stroke-miterlimit="10" x1="74.5" y1="65.5" x2="74.5" y2="69.5"/>
</g>
<g id="Add_Message_with_Lifeline">
	<rect x="87.5" y="66.5" fill="none" stroke="#E3ECEE" stroke-miterlimit="10" width="6" height="4"/>
	<line fill="none" stroke="#E3ECEE" stroke-miterlimit="10" stroke-dasharray="1,1" x1="90.5" y1="72" x2="90.5" y2="79"/>
	<polygon fill="#E3ECEE" stroke="#E3ECEE" stroke-miterlimit="10" points="86.5,73.5 88.5,74.5 86.5,75.5 	"/>
	<line fill="none" stroke="#E3ECEE" stroke-miterlimit="10" x1="81" y1="74.5" x2="86.5" y2="74.5"/>
</g>
<g id="Add_Create_Message_with_Lifeline">
	<rect x="104.5" y="68.5" fill="none" stroke="#E3ECEE" stroke-miterlimit="10" width="6" height="4"/>
	<line fill="none" stroke="#E3ECEE" stroke-miterlimit="10" stroke-dasharray="1,1" x1="107.5" y1="74" x2="107.5" y2="79"/>
	<polygon fill="#E3ECEE" stroke="#E3ECEE" stroke-miterlimit="10" points="101.5,69.5 103.5,70.5 101.5,71.5 	"/>
	<line fill="none" stroke="#E3ECEE" stroke-miterlimit="10" x1="97" y1="70.5" x2="102.5" y2="70.5"/>
</g>
<g id="Add_Self_Message">
	<polygon fill="#E3ECEE" stroke="#E3ECEE" stroke-miterlimit="10" points="122.5,76.5 120.5,77.5 122.5,78.5 	"/>
	<polyline fill="none" stroke="#E3ECEE" stroke-linecap="square" stroke-miterlimit="10" points="121.4472656,77.5 125.5,77.5 
		125.5,73.5 120,73.5 	"/>
	<rect x="115.5" y="66.5" fill="none" stroke="#E3ECEE" stroke-miterlimit="10" width="6" height="4"/>
	<line fill="none" stroke="#E3ECEE" stroke-miterlimit="10" stroke-dasharray="1,1" x1="118.5" y1="72" x2="118.5" y2="79"/>
</g>
<g id="Add_Message_from_Gate">
	<polygon fill="#E3ECEE" stroke="#E3ECEE" stroke-miterlimit="10" points="140.5,70.5 142.5,72.5 140.5,74.5 	"/>
	<line fill="none" stroke="#E3ECEE" stroke-miterlimit="10" x1="135" y1="72.5" x2="141.5" y2="72.5"/>
	<rect x="130.5" y="70.5" fill="none" stroke="#E3ECEE" stroke-miterlimit="10" width="4" height="4"/>
</g>
<g id="Add_Message_to_Gate">
	<polygon fill="#E3ECEE" stroke="#E3ECEE" stroke-miterlimit="10" points="151.5,70.5 153.5,72.5 151.5,74.5 	"/>
	<line fill="none" stroke="#E3ECEE" stroke-miterlimit="10" x1="146" y1="72.5" x2="152.5" y2="72.5"/>
	<rect x="154.5" y="70.5" fill="none" stroke="#E3ECEE" stroke-miterlimit="10" width="4" height="4"/>
</g>
<g id="Add_Found_Message">
	<polygon fill="#E3ECEE" stroke="#E3ECEE" stroke-miterlimit="10" points="172.5,70.5 174.5,72.5 172.5,74.5 	"/>
	<line fill="none" stroke="#E3ECEE" stroke-miterlimit="10" x1="166.5" y1="72.5" x2="173.5" y2="72.5"/>
	<circle fill="#E3ECEE" stroke="#E3ECEE" stroke-miterlimit="10" cx="164.5" cy="72.5" r="2"/>
</g>
<g id="Add_Lost_Message">
	<polygon fill="#E3ECEE" stroke="#E3ECEE" stroke-miterlimit="10" points="183.5,70.5 185.5,72.5 183.5,74.5 	"/>
	<line fill="none" stroke="#E3ECEE" stroke-miterlimit="10" x1="178" y1="72.5" x2="184.5" y2="72.5"/>
	<circle fill="#E3ECEE" stroke="#E3ECEE" stroke-miterlimit="10" cx="188.5" cy="72.5" r="2"/>
</g>
<g id="Add_Reply_Message">
	<rect x="203.5" y="69.5" fill="none" stroke="#E3ECEE" stroke-miterlimit="10" width="2" height="5"/>
	<line fill="none" stroke="#E3ECEE" stroke-miterlimit="10" stroke-dasharray="1,1" x1="204.5" y1="74" x2="204.5" y2="79"/>
	<polygon fill="#E3ECEE" stroke="#E3ECEE" stroke-miterlimit="10" points="200.5,68.5 202.5,69.5 200.5,70.5 	"/>
	<line fill="none" stroke="#E3ECEE" stroke-miterlimit="10" x1="194" y1="69.5" x2="201.5" y2="69.5"/>
	<line fill="none" stroke="#E3ECEE" stroke-miterlimit="10" stroke-dasharray="1,1" x1="204.5" y1="65" x2="204.5" y2="70"/>
	<polygon fill="#E3ECEE" stroke="#E3ECEE" stroke-miterlimit="10" points="196.5,73.5 194.5,74.5 196.5,75.5 	"/>
	<line fill="none" stroke="#E3ECEE" stroke-miterlimit="10" stroke-dasharray="1,1" x1="203" y1="74.5" x2="197" y2="74.5"/>
</g>
<g id="Add_Connected_Lifeline">
	<rect x="213.5" y="72.5" fill="none" stroke="#E3ECEE" stroke-miterlimit="10" width="9" height="5"/>
	<polyline fill="none" stroke="#E3ECEE" stroke-miterlimit="10" points="210,67.5 218,67.5 218,72 	"/>
	<line fill="none" stroke="#E3ECEE" stroke-miterlimit="10" x1="215" y1="75.5" x2="221" y2="75.5"/>
	<polyline fill="none" stroke="#E3ECEE" stroke-miterlimit="10" stroke-dasharray="1,1" points="104.5,103 104.5,98.5 98,98.5 	"/>
</g>
<g id="Add_Self_Connector">
	<rect x="182.5" y="55.5" fill="none" stroke="#E3ECEE" stroke-miterlimit="10" width="8" height="5"/>
	<polyline fill="none" stroke="#E3ECEE" stroke-miterlimit="10" points="178,52.5 185,52.5 185,55 	"/>
	<line fill="none" stroke="#E3ECEE" stroke-miterlimit="10" x1="184" y1="58.5" x2="189" y2="58.5"/>
	<line fill="none" stroke="#E3ECEE" stroke-miterlimit="10" x1="178.5" y1="52.5" x2="178.5" y2="58.5"/>
	<line fill="none" stroke="#E3ECEE" stroke-miterlimit="10" x1="178" y1="58.5" x2="182" y2="58.5"/>
</g>
<g id="Add_Forward_Message">
	<rect x="198.5" y="58.5" fill="none" stroke="#E3ECEE" stroke-miterlimit="10" width="7" height="4"/>
	<polyline fill="none" stroke="#E3ECEE" stroke-miterlimit="10" points="194,55.5 202,55.5 202,58 	"/>
	<polygon fill="#E3ECEE" stroke="#E3ECEE" stroke-miterlimit="10" points="203,50.5 205,51.5 203,52.5 	"/>
	<line fill="none" stroke="#E3ECEE" stroke-miterlimit="10" x1="194" y1="51.5" x2="202.5" y2="51.5"/>
</g>
<g id="Add_Reverse_Message">
	<rect x="214.5" y="58.5" fill="none" stroke="#E3ECEE" stroke-miterlimit="10" width="7" height="4"/>
	<polyline fill="none" stroke="#E3ECEE" stroke-miterlimit="10" points="210,55.5 218,55.5 218,58 	"/>
	<polygon fill="#E3ECEE" stroke="#E3ECEE" stroke-miterlimit="10" points="213,50.5 211,51.5 213,52.5 	"/>
	<line fill="none" stroke="#E3ECEE" stroke-miterlimit="10" x1="222" y1="51.5" x2="213.5" y2="51.5"/>
</g>
<g id="SyncCall">
	<polygon fill="#E3ECEE" stroke="#E3ECEE" stroke-miterlimit="10" points="11.5,37 14.5,39.5 11.5,42 	"/>
	<line fill="none" stroke="#E3ECEE" stroke-miterlimit="10" x1="1" y1="39.5" x2="11.5" y2="39.5"/>
</g>
<g id="AsyncCall">
	<line fill="none" stroke="#E3ECEE" stroke-miterlimit="10" x1="17" y1="39.5" x2="29.5" y2="39.5"/>
	<polyline fill="none" stroke="#E3ECEE" stroke-miterlimit="10" points="27,36.5 30,39.5 27,42.5 	"/>
</g>
<g id="AsyncSignal">
	<line fill="none" stroke="#E3ECEE" stroke-miterlimit="10" x1="33" y1="41.5" x2="45.5" y2="41.5"/>
	<polyline fill="none" stroke="#E3ECEE" stroke-miterlimit="10" points="43,38.5 46,41.5 43,44.5 	"/>
	<line fill="none" stroke="#E3ECEE" stroke-miterlimit="10" x1="46.9995117" y1="36.5" x2="43.9995117" y2="36.5"/>
	<line fill="none" stroke="#E3ECEE" stroke-miterlimit="10" x1="44.4995117" y1="37" x2="44.4995117" y2="34"/>
	<line fill="none" stroke="#E3ECEE" stroke-miterlimit="10" x1="44.4995117" y1="34.5" x2="42.4995117" y2="34.5"/>
	<line fill="none" stroke="#E3ECEE" stroke-miterlimit="10" x1="42.4995117" y1="34" x2="42.4995117" y2="37"/>
	<line fill="none" stroke="#E3ECEE" stroke-miterlimit="10" x1="42.4995117" y1="36.5" x2="39.9995117" y2="36.5"/>
</g>
<g id="CreateMessage">
	
		<line fill="none" stroke="#E3ECEE" stroke-miterlimit="10" stroke-dasharray="1,1,1,1,1,1" x1="49" y1="37.5" x2="57.5" y2="37.5"/>
	<polyline fill="none" stroke="#E3ECEE" stroke-miterlimit="10" points="55,34.5 58,37.5 55,40.5 	"/>
	<line fill="none" stroke="#E3ECEE" stroke-miterlimit="10" x1="63" y1="34.5" x2="59.5" y2="34.5"/>
	<line fill="none" stroke="#E3ECEE" stroke-miterlimit="10" x1="59.5" y1="34" x2="59.5" y2="40"/>
	<line fill="none" stroke="#E3ECEE" stroke-miterlimit="10" x1="59" y1="39.5" x2="63" y2="39.5"/>
	<line fill="none" stroke="#E3ECEE" stroke-miterlimit="10" stroke-dasharray="1,1,1,1,1,1" x1="61.5" y1="40" x2="61.5" y2="47"/>
</g>
<g id="DeleteMessage">
	<line fill="none" stroke="#E3ECEE" stroke-miterlimit="10" x1="65" y1="37.5" x2="73.5" y2="37.5"/>
	<polyline fill="none" stroke="#E3ECEE" stroke-miterlimit="10" points="71,34.5 74,37.5 71,40.5 	"/>
	<line fill="none" stroke="#E3ECEE" stroke-miterlimit="10" stroke-dasharray="1,1,1,1,1,1" x1="75.5" y1="33" x2="75.5" y2="45"/>
	<line fill="none" stroke="#E3ECEE" stroke-miterlimit="10" x1="73.5" y1="42.5" x2="77.5" y2="46.5"/>
	<line fill="none" stroke="#E3ECEE" stroke-miterlimit="10" x1="77.5" y1="42.5" x2="73.5" y2="46.5"/>
</g>
<g id="ReturnMessage">
	<line fill="none" stroke="#E3ECEE" stroke-miterlimit="10" stroke-dasharray="1,1" x1="82" y1="39.5" x2="95" y2="39.5"/>
	<polyline fill="none" stroke="#E3ECEE" stroke-miterlimit="10" points="84.5,42.5 81.5,39.5 84.5,36.5 	"/>
</g>
<g id="Region">
	<line fill="none" stroke="#E3ECEE" stroke-miterlimit="10" stroke-dasharray="1.5,1.5" x1="18" y1="52.5" x2="31" y2="52.5"/>
	
		<line fill="none" stroke="#E3ECEE" stroke-miterlimit="10" stroke-dasharray="1.5,1.5" x1="18" y1="58.0004883" x2="31" y2="58.0004883"/>
	<line fill="none" stroke="#E3ECEE" stroke-miterlimit="10" x1="18.5" y1="53.0004883" x2="18.5" y2="57.5004883"/>
	<line fill="none" stroke="#E3ECEE" stroke-miterlimit="10" x1="30.5" y1="53.0004883" x2="30.5" y2="57.5004883"/>
</g>
<g id="EntryActivity">
	<polygon fill="none" stroke="#E3ECEE" stroke-miterlimit="10" points="82.5,55.5 82.5,61.5 88.5,58.5 	"/>
	<line fill="none" stroke="#E3ECEE" stroke-miterlimit="10" x1="90.5" y1="49" x2="90.5" y2="56"/>
	<line fill="none" stroke="#E3ECEE" stroke-miterlimit="10" x1="93.5" y1="49" x2="93.5" y2="56"/>
	<polyline fill="none" stroke="#E3ECEE" stroke-miterlimit="10" points="86.5,54.5 88.5,52.5 86.5,50.5 	"/>
	<line fill="none" stroke="#E3ECEE" stroke-miterlimit="10" x1="82" y1="52.5" x2="88" y2="52.5"/>
</g>
<g id="DoActivity">
	<polygon fill="none" stroke="#E3ECEE" stroke-miterlimit="10" points="98.5,55.5 98.5,61.5 104.5,58.5 	"/>
	<g>
		<path fill="none" stroke="#E3ECEE" stroke-miterlimit="10" d="M103.5,53.5c0-1.6582031,1.3417969-3,3-3"/>
		<path fill="none" stroke="#E3ECEE" stroke-miterlimit="10" d="M103.5,53.5c0,1.6582031,1.1181641,3,2.5,3"/>
		<path fill="none" stroke="#E3ECEE" stroke-miterlimit="10" d="M109.5,53.5c0-1.6582031-1.3417969-3-3-3"/>
		<path fill="none" stroke="#E3ECEE" stroke-miterlimit="10" d="M109.5,53.5c0,1.6582031-1.1181641,3-2.5,3"/>
		<line fill="none" stroke="#E3ECEE" stroke-miterlimit="10" x1="107.5" y1="54" x2="107.5" y2="56.5"/>
		<line fill="none" stroke="#E3ECEE" stroke-miterlimit="10" x1="110" y1="56.5" x2="107.5" y2="56.5"/>
	</g>
</g>
<g id="ExitActivity">
	<polygon fill="none" stroke="#E3ECEE" stroke-miterlimit="10" points="114.5,55.5 114.5,61.5 120.5,58.5 	"/>
	<line fill="none" stroke="#E3ECEE" stroke-miterlimit="10" x1="117.5" y1="49" x2="117.5" y2="55"/>
	<line fill="none" stroke="#E3ECEE" stroke-miterlimit="10" x1="125.5" y1="49" x2="125.5" y2="55"/>
	<path fill="none" stroke="#E3ECEE" stroke-miterlimit="10" d="M119.5,55c0-1.9345703,1.1181641-3.5,2.5-3.5"/>
	<polyline fill="none" stroke="#E3ECEE" stroke-miterlimit="10" points="122.5,49.5 124.5,51.5 122.5,53.5 	"/>
	<line fill="none" stroke="#E3ECEE" stroke-miterlimit="10" x1="122" y1="51.5" x2="124" y2="51.5"/>
</g>
<g id="Event">
	<polyline fill="none" stroke="#E3ECEE" stroke-miterlimit="10" points="109.5,37.5 103.5,43.5 103.5,36.5 98.5,41.5 	"/>
	<polyline fill="none" stroke="#E3ECEE" stroke-miterlimit="10" points="106,37.5 109.5,37.5 109.5,41 	"/>
</g>
<g id="Effect">
	<polygon fill="none" stroke="#E3ECEE" stroke-miterlimit="10" points="114.5,39.5 114.5,45.5 120.5,42.5 	"/>
	<path fill="none" stroke="#E3ECEE" stroke-miterlimit="10" d="M126.5,37c0,1.3808594-1.1748047,2.5-2.625,2.5h-3.75
		c-1.4501953,0-2.625-1.1191406-2.625-2.5l0,0c0-1.3808594,1.1748047-2.5,2.625-2.5h3.75
		C125.3251953,34.5,126.5,35.6191406,126.5,37L126.5,37z"/>
	<g>
		<path fill="#E3ECEE" d="M120,36.6396484c0.1230469,0,0.2246094,0.0424805,0.3085938,0.1269531s0.125,0.1870117,0.125,0.3066406
			s-0.0429688,0.222168-0.1269531,0.3066406s-0.1875,0.1269531-0.3066406,0.1269531s-0.2226562-0.0424805-0.3066406-0.1269531
			s-0.1269531-0.1870117-0.1269531-0.3066406c0-0.1225586,0.0429688-0.2250977,0.1269531-0.3085938
			S119.8808594,36.6396484,120,36.6396484z"/>
		<path fill="#E3ECEE" d="M122,36.6396484c0.1230469,0,0.2246094,0.0424805,0.3085938,0.1269531s0.125,0.1870117,0.125,0.3066406
			s-0.0429688,0.222168-0.1269531,0.3066406s-0.1875,0.1269531-0.3066406,0.1269531s-0.2226562-0.0424805-0.3066406-0.1269531
			s-0.1269531-0.1870117-0.1269531-0.3066406c0-0.1225586,0.0429688-0.2250977,0.1269531-0.3085938
			S121.8808594,36.6396484,122,36.6396484z"/>
		<path fill="#E3ECEE" d="M124,36.6396484c0.1230469,0,0.2246094,0.0424805,0.3085938,0.1269531s0.125,0.1870117,0.125,0.3066406
			s-0.0429688,0.222168-0.1269531,0.3066406s-0.1875,0.1269531-0.3066406,0.1269531s-0.2226562-0.0424805-0.3066406-0.1269531
			s-0.1269531-0.1870117-0.1269531-0.3066406c0-0.1225586,0.0429688-0.2250977,0.1269531-0.3085938
			S123.8808594,36.6396484,124,36.6396484z"/>
	</g>
</g>
<g id="Add_Outgoing_Transition">
	<path fill="none" stroke="#E3ECEE" stroke-miterlimit="10" d="M140.5,44c0,1.3813477-0.9775391,2.5-2.1816406,2.5h-3.6367188
		C133.4775391,46.5,132.5,45.3813477,132.5,44l0,0c0-1.3813477,0.9775391-2.5,2.1816406-2.5h3.6367188
		C139.5224609,41.5,140.5,42.6186523,140.5,44L140.5,44z"/>
	<polyline fill="none" stroke="#E3ECEE" stroke-miterlimit="10" points="134.5,38.5 136.5,40.5 138.5,38.5 	"/>
	<line fill="none" stroke="#E3ECEE" stroke-miterlimit="10" x1="136.5" y1="40.5" x2="136.5" y2="33"/>
</g>
<g id="Add_Incoming_Transition">
	<path fill="none" stroke="#E3ECEE" stroke-miterlimit="10" d="M156.5,36c0,1.3813477-0.9775391,2.5-2.1816406,2.5h-3.6367188
		C149.4775391,38.5,148.5,37.3813477,148.5,36l0,0c0-1.3813477,0.9775391-2.5,2.1816406-2.5h3.6367188
		C155.5224609,33.5,156.5,34.6186523,156.5,36L156.5,36z"/>
	<line fill="none" stroke="#E3ECEE" stroke-miterlimit="10" x1="152.5" y1="39" x2="152.5" y2="46.5"/>
	<polyline fill="none" stroke="#E3ECEE" stroke-miterlimit="10" points="150.5,44.5 152.5,46.5 154.5,44.5 	"/>
</g>
<g id="Add_ConnectionPointReference">
	<path fill="none" stroke="#E3ECEE" stroke-miterlimit="10" d="M174.5,41L174.5,41c0,1.9326172-1.7910156,3.5-4,3.5h-4
		c-2.2089844,0-4-1.5673828-4-3.5l0,0c0-1.9326172,1.7910156-3.5,4-3.5"/>
	<path fill="none" stroke="#E3ECEE" stroke-miterlimit="10" d="M174.5,41c0-1.9345703-1.7890625-3.5-4-3.5"/>
	<circle fill="none" stroke="#E3ECEE" stroke-miterlimit="10" cx="168.5" cy="37.5" r="2"/>
</g>
<g id="Add_Initial_State">
	<line fill="none" stroke="#E3ECEE" stroke-miterlimit="10" x1="184.5" y1="39" x2="184.5" y2="46.5"/>
	<polyline fill="none" stroke="#E3ECEE" stroke-miterlimit="10" points="182.5,44.5 184.5,46.5 186.5,44.5 	"/>
	<circle fill="#E3ECEE" cx="184.5" cy="36.5004883" r="3"/>
</g>
<g id="Add_Final_State">
	<polyline fill="none" stroke="#E3ECEE" stroke-miterlimit="10" points="198.5,37.5 200.5,39.5 202.5,37.5 	"/>
	<line fill="none" stroke="#E3ECEE" stroke-miterlimit="10" x1="200.5" y1="39.5" x2="200.5" y2="33"/>
	<circle fill="none" stroke="#E3ECEE" stroke-miterlimit="10" cx="200.5" cy="43.5" r="3"/>
	<circle fill="#E3ECEE" cx="200.5" cy="43.5" r="1.5"/>
</g>
<g id="Add_Choice">
	<polygon fill="none" stroke="#E3ECEE" stroke-miterlimit="10" points="213,39.5 216.5,37.5 220,39.5 216.5,41.5 	"/>
	<line fill="none" stroke="#E3ECEE" stroke-miterlimit="10" x1="216.5" y1="37.5" x2="216.5" y2="33"/>
	<path fill="none" stroke="#E3ECEE" stroke-miterlimit="10" d="M215.5,45c0-0.8286133-0.5097656-1.5-1.1376953-1.5h-2.7246094
		C211.0097656,43.5,210.5,44.1713867,210.5,45l0,0c0,0.8286133,0.5097656,1.5,1.1376953,1.5h2.7246094
		C214.9902344,46.5,215.5,45.8286133,215.5,45L215.5,45z"/>
	<path fill="none" stroke="#E3ECEE" stroke-miterlimit="10" d="M222.5,45c0-0.8286133-0.5097656-1.5-1.1376953-1.5h-2.7246094
		C218.0097656,43.5,217.5,44.1713867,217.5,45l0,0c0,0.8286133,0.5097656,1.5,1.1376953,1.5h2.7246094
		C221.9902344,46.5,222.5,45.8286133,222.5,45L222.5,45z"/>
	<line fill="none" stroke="#E3ECEE" stroke-miterlimit="10" x1="214.5" y1="43.5" x2="214.5" y2="40.5"/>
	<line fill="none" stroke="#E3ECEE" stroke-miterlimit="10" x1="218.5" y1="43.5" x2="218.5" y2="40.5"/>
</g>
<g id="Add_Merge">
	<polygon fill="none" stroke="#E3ECEE" stroke-miterlimit="10" points="181,25.5 184.5,23.5 188,25.5 184.5,27.5 	"/>
	<line fill="none" stroke="#E3ECEE" stroke-miterlimit="10" x1="184.5" y1="31" x2="184.5" y2="27"/>
	<path fill="none" stroke="#E3ECEE" stroke-miterlimit="10" d="M183.5,19c0-0.8286133-0.5097656-1.5-1.1376953-1.5h-2.7246094
		C179.0097656,17.5,178.5,18.1713867,178.5,19l0,0c0,0.8286133,0.5097656,1.5,1.1376953,1.5h2.7246094
		C182.9902344,20.5,183.5,19.8286133,183.5,19L183.5,19z"/>
	<path fill="none" stroke="#E3ECEE" stroke-miterlimit="10" d="M190.5,19c0-0.8286133-0.5097656-1.5-1.1376953-1.5h-2.7246094
		C186.0097656,17.5,185.5,18.1713867,185.5,19l0,0c0,0.8286133,0.5097656,1.5,1.1376953,1.5h2.7246094
		C189.9902344,20.5,190.5,19.8286133,190.5,19L190.5,19z"/>
	<line fill="none" stroke="#E3ECEE" stroke-miterlimit="10" x1="181.5" y1="25" x2="181.5" y2="20.5"/>
	<line fill="none" stroke="#E3ECEE" stroke-miterlimit="10" x1="187.5" y1="25" x2="187.5" y2="20.5"/>
</g>
<g id="Add_Fork">
	<line fill="none" stroke="#E3ECEE" stroke-miterlimit="10" x1="216.5" y1="22.5" x2="216.5" y2="17"/>
	<path fill="none" stroke="#E3ECEE" stroke-miterlimit="10" d="M215.5,29c0-0.8286133-0.5097656-1.5-1.1376953-1.5h-2.7246094
		C211.0097656,27.5,210.5,28.1713867,210.5,29l0,0c0,0.8286133,0.5097656,1.5,1.1376953,1.5h2.7246094
		C214.9902344,30.5,215.5,29.8286133,215.5,29L215.5,29z"/>
	<path fill="none" stroke="#E3ECEE" stroke-miterlimit="10" d="M222.5,29c0-0.8286133-0.5097656-1.5-1.1376953-1.5h-2.7246094
		C218.0097656,27.5,217.5,28.1713867,217.5,29l0,0c0,0.8286133,0.5097656,1.5,1.1376953,1.5h2.7246094
		C221.9902344,30.5,222.5,29.8286133,222.5,29L222.5,29z"/>
	<line fill="none" stroke="#E3ECEE" stroke-miterlimit="10" x1="213.5" y1="27" x2="213.5" y2="24"/>
	<line fill="none" stroke="#E3ECEE" stroke-miterlimit="10" x1="219.5" y1="27" x2="219.5" y2="24"/>
	<line fill="none" stroke="#E3ECEE" stroke-width="2" stroke-miterlimit="10" x1="211" y1="23" x2="222" y2="23"/>
</g>
<g id="Add_Join">
	<line fill="none" stroke="#E3ECEE" stroke-miterlimit="10" x1="200.5" y1="31" x2="200.5" y2="26"/>
	<path fill="none" stroke="#E3ECEE" stroke-miterlimit="10" d="M199.5,19c0-0.8286133-0.5097656-1.5-1.1376953-1.5h-2.7246094
		C195.0097656,17.5,194.5,18.1713867,194.5,19l0,0c0,0.8286133,0.5097656,1.5,1.1376953,1.5h2.7246094
		C198.9902344,20.5,199.5,19.8286133,199.5,19L199.5,19z"/>
	<path fill="none" stroke="#E3ECEE" stroke-miterlimit="10" d="M206.5,19c0-0.8286133-0.5097656-1.5-1.1376953-1.5h-2.7246094
		C202.0097656,17.5,201.5,18.1713867,201.5,19l0,0c0,0.8286133,0.5097656,1.5,1.1376953,1.5h2.7246094
		C205.9902344,20.5,206.5,19.8286133,206.5,19L206.5,19z"/>
	<line fill="none" stroke="#E3ECEE" stroke-miterlimit="10" x1="197.5" y1="24" x2="197.5" y2="21"/>
	<line fill="none" stroke="#E3ECEE" stroke-miterlimit="10" x1="203.5" y1="24" x2="203.5" y2="21"/>
	<line fill="none" stroke="#E3ECEE" stroke-width="2" stroke-miterlimit="10" x1="195" y1="25" x2="206" y2="25"/>
</g>
<g id="InputPin">
	<rect x="2.5" y="22.5" fill="none" stroke="#E3ECEE" stroke-miterlimit="10" width="4" height="4"/>
	<polyline fill="none" stroke="#E3ECEE" stroke-miterlimit="10" points="10.5,22.5 8.5,24.5 10.5,26.5 	"/>
	<line fill="none" stroke="#E3ECEE" stroke-miterlimit="10" x1="9" y1="24.5" x2="15" y2="24.5"/>
</g>
<g id="OutputPin">
	<rect x="18.5" y="22.5" fill="none" stroke="#E3ECEE" stroke-miterlimit="10" width="4" height="4"/>
	<line fill="none" stroke="#E3ECEE" stroke-miterlimit="10" x1="24" y1="24.5" x2="30" y2="24.5"/>
	<polyline fill="none" stroke="#E3ECEE" stroke-miterlimit="10" points="28.5,22.5 30.5,24.5 28.5,26.5 	"/>
</g>
<g id="Add_Incoming_Object_Flow">
	<line fill="none" stroke="#E3ECEE" stroke-miterlimit="10" x1="56.5" y1="23" x2="56.5" y2="30.5"/>
	<polyline fill="none" stroke="#E3ECEE" stroke-miterlimit="10" points="54.5,28.5 56.5,30.5 58.5,28.5 	"/>
	<rect x="52.5" y="17.5" fill="none" stroke="#E3ECEE" stroke-miterlimit="10" width="8" height="5"/>
</g>
<g id="Add_Outgoing_Object_Flow">
	<polyline fill="none" stroke="#E3ECEE" stroke-miterlimit="10" points="38.5,22.5 40.5,24.5 42.5,22.5 	"/>
	<line fill="none" stroke="#E3ECEE" stroke-miterlimit="10" x1="40.5" y1="24.5" x2="40.5" y2="17"/>
	<rect x="36.5" y="25.5" fill="none" stroke="#E3ECEE" stroke-miterlimit="10" width="8" height="5"/>
</g>
<g id="Add_Stereotype">
	<g>
		<path fill="#E3ECEE" d="M116.2070312,124.171875l1.5175781,2.671875h-0.8554688L115,124.171875L116.8691406,121.5h0.8671875
			L116.2070312,124.171875z M118.4746094,124.171875l1.546875,2.671875h-0.890625l-1.8339844-2.671875L119.1308594,121.5h0.890625
			L118.4746094,124.171875z"/>
		<path fill="#E3ECEE" d="M123.2558594,124.171875L121.7089844,121.5h0.8847656l1.8398438,2.671875l-1.8398438,2.671875h-0.8847656
			L123.2558594,124.171875z M125.5234375,124.171875L123.9941406,121.5h0.8671875l1.8691406,2.671875l-1.8691406,2.671875H124
			L125.5234375,124.171875z"/>
	</g>
	<g>
		<g>
			<polyline fill="none" stroke="#E3ECEE" stroke-miterlimit="10" points="121.5,121 121.5,115.5 115.5117188,115.5 			"/>
			<g>
				<polygon fill="#E3ECEE" points="116.0224609,113.7548828 113,115.5 116.0224609,117.2451172 				"/>
			</g>
		</g>
	</g>
</g>
<g id="ERDOneToOne">
	<line fill="none" stroke="#E3ECEE" stroke-miterlimit="10" x1="187.5" y1="158" x2="187.5" y2="147"/>
	<line fill="none" stroke="#E3ECEE" stroke-miterlimit="10" x1="188" y1="147.5" x2="178" y2="147.5"/>
	<line fill="none" stroke="#E3ECEE" stroke-miterlimit="10" x1="180.5" y1="145" x2="180.5" y2="150"/>
	<line fill="none" stroke="#E3ECEE" stroke-miterlimit="10" x1="185" y1="155.5" x2="190" y2="155.5"/>
</g>
<g id="ERDOneToMany">
	<line fill="none" stroke="#E3ECEE" stroke-miterlimit="10" x1="203.5" y1="153" x2="203.5" y2="147"/>
	<line fill="none" stroke="#E3ECEE" stroke-miterlimit="10" x1="204" y1="147.5" x2="194" y2="147.5"/>
	<line fill="none" stroke="#E3ECEE" stroke-miterlimit="10" x1="196.5" y1="145" x2="196.5" y2="150"/>
	<circle fill="none" stroke="#E3ECEE" stroke-miterlimit="10" cx="203.5" cy="154.5" r="2"/>
	<line fill="none" stroke="#E3ECEE" stroke-miterlimit="10" x1="203.5" y1="156" x2="203.5" y2="159"/>
	<line fill="none" stroke="#E3ECEE" stroke-miterlimit="10" x1="204.5" y1="156.5" x2="206" y2="159"/>
	<line fill="none" stroke="#E3ECEE" stroke-miterlimit="10" x1="202.5" y1="156.5" x2="201" y2="159"/>
</g>
<g id="ERDManyToMany">
	<line fill="none" stroke="#E3ECEE" stroke-miterlimit="10" x1="219.5" y1="153" x2="219.5" y2="147"/>
	<line fill="none" stroke="#E3ECEE" stroke-miterlimit="10" x1="220" y1="147.5" x2="215" y2="147.5"/>
	<circle fill="none" stroke="#E3ECEE" stroke-miterlimit="10" cx="219.5" cy="154.5" r="2"/>
	<line fill="none" stroke="#E3ECEE" stroke-miterlimit="10" x1="219.5" y1="156" x2="219.5" y2="159"/>
	<line fill="none" stroke="#E3ECEE" stroke-miterlimit="10" x1="220.5" y1="156.5" x2="222" y2="159"/>
	<line fill="none" stroke="#E3ECEE" stroke-miterlimit="10" x1="218.5" y1="156.5" x2="217" y2="159"/>
	<circle fill="none" stroke="#E3ECEE" stroke-miterlimit="10" cx="213.5" cy="147.5" r="2"/>
	<line fill="none" stroke="#E3ECEE" stroke-miterlimit="10" x1="209" y1="147.5" x2="212" y2="147.5"/>
	<line fill="none" stroke="#E3ECEE" stroke-miterlimit="10" x1="211.5" y1="146.5" x2="209" y2="145"/>
	<line fill="none" stroke="#E3ECEE" stroke-miterlimit="10" x1="211.5" y1="148.5" x2="209" y2="150"/>
</g>
<g id="Reception">
	<polyline fill="none" stroke="#E3ECEE" stroke-miterlimit="10" points="52.5,136.5 55,136.5 55,134.5 57,134.5 57,138.5 59,138.5 
		59,136.5 61.5,136.5 	"/>
	<ellipse fill="none" stroke="#E3ECEE" stroke-miterlimit="10" cx="56.75" cy="136.5" rx="4.75" ry="5"/>
</g>
<g id="Internal_Transition">
	<polyline fill="none" stroke="#E3ECEE" stroke-linejoin="round" stroke-miterlimit="10" points="164,20.5 172.5,20.5 172.5,29.5 
		163.5,29.5 163.5,24 	"/>
	<polyline fill="none" stroke="#E3ECEE" stroke-miterlimit="10" points="166.5,17.5 163.5,20.5 166.5,23.5 	"/>
</g>
<g id="Add_Incoming_Process__x28_Flowchart_x29_">
	<line fill="none" stroke="#E3ECEE" stroke-miterlimit="10" x1="88.5" y1="23" x2="88.5" y2="29.5"/>
	<polyline fill="none" stroke="#E3ECEE" stroke-miterlimit="10" points="86.5,27.5 88.5,29.5 90.5,27.5 	"/>
	<rect x="84.5" y="18.5" fill="none" stroke="#E3ECEE" stroke-miterlimit="10" width="8" height="4"/>
</g>
<g id="Add_Outgoing_Process__x28_Flowchart_x29_">
	<polyline fill="none" stroke="#E3ECEE" stroke-miterlimit="10" points="70.5,22.5 72.5,24.5 74.5,22.5 	"/>
	<line fill="none" stroke="#E3ECEE" stroke-miterlimit="10" x1="72.5" y1="24.5" x2="72.5" y2="18"/>
	<rect x="68.5" y="25.5" fill="none" stroke="#E3ECEE" stroke-miterlimit="10" width="8" height="4"/>
</g>
<g id="Add_Outgoing_Decision__x28_Flowchart_x29_">
	<polygon fill="none" stroke="#E3ECEE" stroke-miterlimit="10" points="100,28 104.5,25.5 109,28 104.5,30.5 	"/>
	<polyline fill="none" stroke="#E3ECEE" stroke-miterlimit="10" points="102.5,22.5 104.5,24.5 106.5,22.5 	"/>
	<line fill="none" stroke="#E3ECEE" stroke-miterlimit="10" x1="104.5" y1="24.5" x2="104.5" y2="18"/>
</g>
<g id="Add_Incoming_Decision__x28_Flowchart_x29_">
	<polygon fill="none" stroke="#E3ECEE" stroke-miterlimit="10" points="116,20 120.5,17.5 125,20 120.5,22.5 	"/>
	<polyline fill="none" stroke="#E3ECEE" stroke-miterlimit="10" points="118.5,27.5 120.5,29.5 122.5,27.5 	"/>
	<line fill="none" stroke="#E3ECEE" stroke-miterlimit="10" x1="120.5" y1="29.5" x2="120.5" y2="23"/>
</g>
<g id="TemplateParameter">
	<g>
		<g>
			<polyline fill="none" stroke="#E3ECEE" stroke-miterlimit="10" points="109.5,168.75 109.5,169.5 108.75,169.5 			"/>
			
				<line fill="none" stroke="#E3ECEE" stroke-miterlimit="10" stroke-dasharray="1.5,1.5" x1="107.25" y1="169.5" x2="102" y2="169.5"/>
			<polyline fill="none" stroke="#E3ECEE" stroke-miterlimit="10" points="101.25,169.5 100.5,169.5 100.5,168.75 			"/>
			
				<line fill="none" stroke="#E3ECEE" stroke-miterlimit="10" stroke-dasharray="0.8333333,0.8333333" x1="100.5" y1="167.9169922" x2="100.5" y2="166.6669922"/>
			<polyline fill="none" stroke="#E3ECEE" stroke-miterlimit="10" points="100.5,166.25 100.5,165.5 101.25,165.5 			"/>
			
				<line fill="none" stroke="#E3ECEE" stroke-miterlimit="10" stroke-dasharray="1.5,1.5" x1="102.75" y1="165.5" x2="108" y2="165.5"/>
			<polyline fill="none" stroke="#E3ECEE" stroke-miterlimit="10" points="108.75,165.5 109.5,165.5 109.5,166.25 			"/>
			
				<line fill="none" stroke="#E3ECEE" stroke-miterlimit="10" stroke-dasharray="0.8333333,0.8333333" x1="109.5" y1="167.0830078" x2="109.5" y2="168.3330078"/>
		</g>
	</g>
	<polyline fill="none" stroke="#E3ECEE" stroke-miterlimit="10" points="105.5,170 105.5,173.5 97.5,173.5 97.5,167.5 100,167.5 	
		"/>
</g>
</svg>
