<?xml version="1.0" encoding="utf-8"?>
<!-- Generator: Adobe Illustrator 16.0.0, SVG Export Plug-In . SVG Version: 6.00 Build 0)  -->
<!DOCTYPE svg PUBLIC "-//W3C//DTD SVG 1.1//EN" "http://www.w3.org/Graphics/SVG/1.1/DTD/svg11.dtd">
<svg version="1.1" id="Layer_1" xmlns="http://www.w3.org/2000/svg" xmlns:xlink="http://www.w3.org/1999/xlink" x="0px" y="0px"
	 width="24px" height="24px" viewBox="0 0 24 24" enable-background="new 0 0 24 24" xml:space="preserve">
<path fill="#94DAF8" d="M12.627,20.496H18.9v-6.272h-6.273V20.496z M5.102,20.496h6.272v-6.272H5.102V20.496z M12.623,9.053
	c0.616-0.068,1.311-0.145,1.713-0.19c1.645-0.183,3.123-1.663,3.307-3.307c0.182-1.642-1-2.825-2.641-2.641
	C13.719,3.059,12.546,3.992,12,5.176c-0.546-1.184-1.719-2.117-3-2.262c-1.641-0.183-2.825,1-2.641,2.642
	c0.183,1.644,1.664,3.123,3.306,3.307c0.402,0.046,1.097,0.123,1.713,0.19c-0.009,0.083-0.004,0.153-0.004,0.153h1.254
	C12.627,9.206,12.633,9.136,12.623,9.053z M14.732,4.438c0.887-0.1,1.529,0.54,1.428,1.428c-0.098,0.889-0.898,1.689-1.785,1.788
	c-0.891,0.099-1.529-0.541-1.43-1.429C13.044,5.336,13.846,4.536,14.732,4.438z M9.627,7.653C8.74,7.555,7.94,6.754,7.841,5.865
	C7.742,4.978,8.382,4.338,9.268,4.438c0.888,0.098,1.689,0.898,1.788,1.787C11.155,7.112,10.515,7.752,9.627,7.653z M12.627,9.206
	v3.764h7.527V9.206H12.627z M3.847,12.97h7.526V9.206H3.847V12.97z"/>
</svg>
